<mxfile host="app.diagrams.net" agent="Mozilla/5.0 (Windows NT 10.0; Win64; x64) AppleWebKit/537.36 (KHTML, like Gecko) Chrome/133.0.0.0 Safari/537.36" version="26.0.14">
  <diagram name="Page-1" id="E9Gdvp7NVVcvxV29kwga">
    <mxGraphModel dx="10567" dy="1882" grid="1" gridSize="10" guides="1" tooltips="1" connect="1" arrows="1" fold="1" page="1" pageScale="1" pageWidth="827" pageHeight="1169" math="0" shadow="0">
      <root>
        <mxCell id="0" />
        <mxCell id="1" parent="0" />
        <mxCell id="NUJJkoM4LNsQMDwtqZOB-1" value="" style="rounded=0;whiteSpace=wrap;html=1;strokeWidth=2;" vertex="1" parent="1">
          <mxGeometry x="-580" y="2750" width="1530" height="780" as="geometry" />
        </mxCell>
        <mxCell id="NUJJkoM4LNsQMDwtqZOB-2" value="" style="verticalLabelPosition=bottom;html=1;verticalAlign=top;align=center;strokeColor=none;shape=mxgraph.azure.user;fontSize=13;fillColor=#000000;" vertex="1" parent="1">
          <mxGeometry x="-333" y="3292.5" width="131" height="120" as="geometry" />
        </mxCell>
        <mxCell id="NUJJkoM4LNsQMDwtqZOB-3" value="" style="shape=flexArrow;endArrow=classic;html=1;fontSize=13;fillColor=#ffcd28;strokeColor=#d79b00;gradientColor=#ffa500;" edge="1" parent="1">
          <mxGeometry width="50" height="50" relative="1" as="geometry">
            <mxPoint x="-302" y="3290" as="sourcePoint" />
            <mxPoint x="-302" y="3080" as="targetPoint" />
          </mxGeometry>
        </mxCell>
        <mxCell id="NUJJkoM4LNsQMDwtqZOB-4" value="" style="shape=flexArrow;endArrow=classic;html=1;fontSize=13;fillColor=#d5e8d4;strokeColor=#82b366;gradientColor=#97d077;" edge="1" parent="1">
          <mxGeometry width="50" height="50" relative="1" as="geometry">
            <mxPoint x="-232" y="3080" as="sourcePoint" />
            <mxPoint x="-232" y="3290" as="targetPoint" />
          </mxGeometry>
        </mxCell>
        <mxCell id="NUJJkoM4LNsQMDwtqZOB-5" value="&lt;span style=&quot;font-size: 23px&quot;&gt;&lt;font style=&quot;font-size: 23px&quot;&gt;User enters &lt;br&gt;COVID-19 &lt;br&gt;News Article in the&lt;br&gt;web-app &quot;CoVShorts&quot;&lt;br&gt;&lt;/font&gt;&lt;/span&gt;" style="text;html=1;align=center;verticalAlign=middle;resizable=0;points=[];autosize=1;strokeColor=none;" vertex="1" parent="1">
          <mxGeometry x="-560" y="3130" width="240" height="80" as="geometry" />
        </mxCell>
        <mxCell id="NUJJkoM4LNsQMDwtqZOB-6" value="&lt;font style=&quot;font-size: 23px&quot;&gt;User&lt;/font&gt;" style="text;html=1;align=center;verticalAlign=middle;resizable=0;points=[];autosize=1;strokeColor=none;fontSize=13;fontStyle=1" vertex="1" parent="1">
          <mxGeometry x="-302.5" y="3422" width="70" height="20" as="geometry" />
        </mxCell>
        <mxCell id="NUJJkoM4LNsQMDwtqZOB-7" value="&lt;span style=&quot;font-size: 23px&quot;&gt;User gets &lt;br&gt;generated&lt;br&gt;summary&lt;/span&gt;" style="text;html=1;align=center;verticalAlign=middle;resizable=0;points=[];autosize=1;strokeColor=none;fontSize=13;" vertex="1" parent="1">
          <mxGeometry x="-224.5" y="3198" width="120" height="60" as="geometry" />
        </mxCell>
        <mxCell id="NUJJkoM4LNsQMDwtqZOB-8" value="" style="shape=flexArrow;endArrow=classic;html=1;fontSize=13;fillColor=#ffcd28;strokeColor=#d79b00;gradientColor=#ffa500;" edge="1" parent="1">
          <mxGeometry width="50" height="50" relative="1" as="geometry">
            <mxPoint x="-113" y="2961" as="sourcePoint" />
            <mxPoint x="128" y="2961" as="targetPoint" />
          </mxGeometry>
        </mxCell>
        <mxCell id="NUJJkoM4LNsQMDwtqZOB-9" value="" style="shape=flexArrow;endArrow=classic;html=1;fontSize=13;fillColor=#d5e8d4;strokeColor=#82b366;gradientColor=#97d077;" edge="1" parent="1">
          <mxGeometry width="50" height="50" relative="1" as="geometry">
            <mxPoint x="128" y="3024" as="sourcePoint" />
            <mxPoint x="-113" y="3024" as="targetPoint" />
          </mxGeometry>
        </mxCell>
        <mxCell id="NUJJkoM4LNsQMDwtqZOB-10" value="" style="shape=image;imageAspect=0;aspect=fixed;verticalLabelPosition=bottom;verticalAlign=top;image=data:image/png,iVBORw0KGgoAAAANSUhEUgAAAOoAAAEsCAYAAADNUi9TAAAAAXNSR0IArs4c6QAAAARnQU1BAACxjwv8YQUAAAAJcEhZcwAADsMAAA7DAcdvqGQAAEUySURBVHhe7d0HuG3dVRZgrGBABAQUpClKMSAl9C4kBEI39FADBAiEQAJIJzTpJbQEQiihSVDpVamhBZCOUlSKUlSkiAXbo+P9/3/EyWSutvdae59z7/ie53vuPbusvc7Za6w55ijfeKYL4lWDTw7+l+D/bf79V8EPDD5/sFAoXAnPFvySIKPEpwZfI/iiwdcN/pOgx38r+HbBQqFwBXxhMI30EzwwwBcEPf/fg4y4UChcEC8X/K9BRvi9wT8XHOG5g78c9LpvCE69rlAoHIC/F8zV9J08MIMvDnrd7wRfwAOFQuEyeEiQ8VlV3zz4YcGvCX5e8OOCjww+Ivj3g/8mmEb9ksFCoXAhPF/wt4P2nvaq/yuYxjhFK+oLBQuFwgXxKUEG+LTgL9z3/zl+d/CZg4VC4YL4a8EMFEnB9IbZ8yOChULhCnj94P8Ojgyz5e8HXzxYKBSuhLcOtgGjEf9d8M8EC4XCFfHCwW8JjowUBZ6eNVgoFK6MZw/+cHBkqKLC7xAsFAo3AIofRoaKvxl8m+D9goVC4Yp4WHBkpC2lcr45qGj/6+77l9v8U8GfbfgjwY8NytkWCoWd8CzB7wr2hrmmGGKO/zRY+9tCYSd8RrA1MFVL3xr8D81jyf8T/LHgtwV/KPifg/1rkn8UfNlgoVA4A1a7bGdryVAVQvQrKqN8UDDxV4NtX2vP/xZ8QLBQKJyI+we5piMDm+LvBT81aP/5lcGnBxn16LX4q0FVUIVC4QS8ffDfBkfGtScZc6FQ2IjnCGpnGxnVEfye4F8OFgqFlXjOoADQyKCO5I8GXytYKBQW8GeDXxscGdIp/MPgKCI8RdHffxR8aNAN408FC4VCB+oMjGVkRKfwG4OCRO8a/NLgLwVHrxvxN4JW9n8QfPfg6wVfLFiaTIW7HlYxOc+R4ZxC0i0t/krwdYKPD24xWvyfQYX/Pxf8jqCIshY89ceFwl2HlwgutbStJWNk/CMw2vcL/mJw9N61/PGgFbdQuOvwacGRUZxCvaxz0D6numlNc/ocCa4VCncVSIUqARwZxBJ10NBY+pX7fv4Xwb8UHOF9gtrmyI3OlRiuIUN/tWChcNfglYP/IzgyiJ6/G/z+IL0kYy5S11cQ6ZuCXkPFcIS3DPbHO4cfHCwU7hrQ9J1bUUWGlRUyjDcKvkzQIClRWYb6XEFQxKCYwXs+0gMdnjdIwqU//ql8QlCxxp8OFgp3POz3RoaAosJvFqTm8FVBAaP/FGS8pryp8xWdFZD6Z8FUMcTPCfbBpSnFCOQ+CzatbaNTT8z11uf6ScFyhQt3LOwnNXWPDAE1hTOuU/ewPx2krk99/7PvewwZ+s8Hvzz4LsFXCr5g8HmCXxRsj7GWDFcBRQ2vKtxx+PTg6KI/ggJABlB9UFB+dUq8++uDo/evJYO1wk4FtQqFWwPqDUYrji70PcmdNWf1UcG/GRxJjHKP5XPhPYOj45xC7XZ/N1go3DqYFq621so2urjP4R8EFdvTTfrwoGbyNdPJ3TReO6jq6NWDaoZHxz+FVtdPDE4VYhQKNwKmhZvCRrGBARnvP7qgT6FAkj2ooJEJ5KLAI9h7fmbwwff8NIbIMekXioZvFRx93jl0nhQV/2KwULgxcEGqOGJMowv3FBrJaMXUu/pewVcImub2UkHKENI2fyfYr17vHfR+RQ5zxvqdQSu9NA/DPjWANUe1w1ZYOV1yMDXkqnA1PFtQmd7oQt1KlUZfEZRDpQAhQsut/bLgPw9KyyiCYMRoJg2plR8IfkjwbwTfJJhG92vBqeHHivq9xupnPqvjtudyBHkYijdqjk7h4hDxHF2Uaygy+y+DOl7eOUhgm2Fymxng6D1zVOAgLdP2qSpU6KEXte/kWaoHtid23H8fdMP4iaBVmbDa5wY/Ovj+wccMKPL8oUFuu0L//xj8h0FppFKfKBwOCoBbmrd7Miyu6scE1fBaJUev20pta/l/OVT75hbc6PY1PSkXKob4hqCU0icHVUt9VNAe+BwX9rmDrVaUog03Fz2xNQircAhyxP8SrUKKGfoqIEY0pyC4F62WVjRR4ZcLWg3zOU3kXGfutdVP2aKum3bvq8HceZp6/r4e6KBc0T5Uw4Go8hJGmlHqn53XY4Oa7AuF3fDGwf6CSzJOCoDGVFjRrJhL7uXRtEfkenJ7udgK/e1r55Qd7MHbHlorcVuNpMFcWaPnlDwy2iX47DzeiLyUpwRL56mwC6Q5+uZstbkMVJeMwM6Tg1ai9jWXpDyp6K4aY/2rXNctEPjp3fuUIPXcTwZ18mirmwpc9VB62B5vjubqvGGwUDgL0iXypkrxzI5hmJ8SlFo5IuWxhiqURHUfHqT2cA64yr17zlUGA6o+/t7/rsaLBHkb7fGWyBNxc8iKqkJhM/5C0N7MqiKCOxekOYr2vj8TFOHlimpHS1hB5TDtpxUh6MxRMMF9FQxbQv5+Cvp/8D7mrFY50q1F+SLco99hDQXbrNyFwmr8+aBaWQYyuqiOpnSJvaYcqL1mG8R5laBIqnObi0oztEtCbnjrjcxqym1/x6CboZ+pLhYKi2AIgkOjC+tICuoIslhV7A9pBbdwXtxSr5X6kd+0esrR0hRmtKbAPTHIaC5ZkytHrKe2/52WaPvAjU8vwd5fkYYVvv/9C4VnQFJ/z0L2OdprfndQekQEdMpVVTQg4ELmk9wnwxwVEihBFMW9JORGFTzkSiolpbSQsZlW1//OU3Tj0RUkQi2yrIn9s4KFwh+DC84UtdFFdC5dvKp1uKqUHT4waK+5NorKME0hv0mw2qk1Vr2Uv6cqJsoQVkf10RoL3iCokEKb3JoV9/uCoAjDz2RqCoVnYM+mb/ssaR37SAX3mc8c6RH9raCuHLAP/YCgUrx3C6brSqlhTWDoaPz1oIIJhRNW9vZ3ZqRzUNbIrVWKOCchgyq5pG3837/lAhfuAZerv1jO4U8F19S4ynv+6+Bb3PPTvXnZ9jhkXa7drC099R5BIzLsgUcpKY/nzWYNtN+JJuvqkeaa03UShW6j3IW7FOpiTwmCKHLQDWN16CuS7HFFXJcava1QbTmdC1I+sT2WoMqlYOWS7nFz0IzADVXg0Z7PiPKtp0J6yEorwq70UP2xm8JXB1V81ZDmwj2upiKG0cXXU/8nZUCum2bsvx3kzol2jl6POmSsGooARvD52tfsWwWU0rDlQ+1jtcGpyz0CGbSxp3xkkJtuvzmX7pmiFFKhcBi0YY0uvJZWTHsye8zRXknEc/S+pD7TqRI5aZT2tWppXz64FxijFYnXoG7ZnBkrvRY0pYGMcm3TAK/DDUVU3HkLkOVzbxssFA7DXEO4faaCe4UPc3Dxj96PVqgpaAcTBdZy1r5Hi9gaY+Wiah2zv6Y+oTvmSUEia/61+utWkQI6ZeSFfaPGdWkSEedXDEKW+THYfK3IbqFwCLiZU8X0anvbYJAVkQtrJbGPsp/K561YU9pJuk50kowKD7i98p5cT/W00jf5PhVJAi49HIc7bEVsez7PpSooNw2RW664EkI3AXXAfZBIlFoqC3kL3i/YVCgcAqp+/QWLRMESjMnslzbSqd6X3IhAUEIwJC/aEbmZUjRzsOdtNXhFgBOMw954TzE1q62bjsomxuh33Qr7asequTWFwyCi2F+8xjm0F6yVrn2e0T5rcATynJqi9YOO0g1W6TWwl3SzoNtrxZXfzX7QPehmoIh/6vfYgtzjtze3QmFXPC7YX8QqgBKMpBUE45quUYsnY6IckFKC4It0g31sDn9aA2WARlcQL2vPbwt5AaNSSDeSzNueCzlWx7xkCqlwl6E3VPs08pyJdw22z9vPCgAdCftmk9sEgNrPPoUKKRQV2G9qPRO9biO1ivvtQc+B/bljCcoVCoegr0biXrai1yKn7fNoTzYH6RDGbkiTYIzAD9dVrtbe1go7kkWxMrlx/Hqw/8xT6bNacHW507pquPAqfpzbOYJjIs8+y4xXOeVCYXf0wSSuohEQiW8Pts+jFcmFPgXG8LRgu3K1tD9MPF+QC6o97VTNXVVDRNXcZOQ55UR5BiqKppT2W4xuGluQhiqQtpTGKhROgmohecL2wrfKJuQh2+eSjEGUc2rgbxaTjyitkrq+1AFHr0lqG1tqwhYF1oUjAq3LxMwZOdhzDXAEqSEVTBoEElx150ES9OhtQeEuhl7Q9sKXv8zqIzq37XM9rbiMpDUKxn+KsPaIejHXlDdyry8BHS0+TzonoU7ZY3K6a1v2CoXNGNXp0q+F3kjo0lo5uJbt47o/GJWKIA3T7XPn0Gctzbr5nuAlVjICapki0rwOXN0HBj3GM5EHLhQOgVSKoEp78Ssd9LgZMfmYMj9unwJ5HTPt669Bedq+eupItBFw+WeehMfc1DzmJrZnjXKh8CcwEtmWIiG4lT9rY7PCapYe9WPuzb5tLmlVk7NcqnLaG9l6J0Ulqi03LM+ryd3j9tJb1QoLhU1QidSX/6Wbewmj7GlvrABeq5sSP4p8pEzeLHhUy9scBJHSi5CGIbFCC0kh/ucH87xLRLtwOLSx5QV3Tap+uml7PWqIblzOT8/qywadp3/bffxe1U6FwiREa48eS6E7ReqGlpIo6Sg98/PBuSne3HSaRZdEBozQPl16SZWTeuG246eEswsXQQ7+PYoubg3W+jkVRpBdUSlE9oQLqS5X0YKqpikIHq0Z0rQnrJT5OxBdc8MR4e6b7u1XC4XDQWisvfCOov2e2TVG/7dIecw1XTZqbOdW3j3xpsE8dzcTgSOrqUYD7Xv5HKnVQuFwWKkUsueFdwrNTlFCKCA0ak2jtGDSmdcQqKaLlPiiYB6jN+IeCg3cWHrIbe5dmcQo29/B76auFwW3CGd7XOF/oXARmNTWXpRbKKVCkDpLC+Ua+9eozVVjDHK12tlU9HAp2wiz9MdckbvnrMq9ODX9JoYux7kXnGPmmpVP9q45D8BzT73np0LhAnhoMI1lKxla211Dx2j0OpVN5stoSldU0Q4RbilwNAfPi7q2fa7KCb13b6OxlxbxHUV29d36zJum5F+4g6GjZetsz57qh9vOG90tVmp52fZ1LZXg9Z+rx3NOIV4TO/daCWObwzRCUXH+pUA61fkaTlUoXAyjadmUFk4ttmdwXOJvbB7ryZiVLraPaX2ba1XjYufcF243YbItavV7wU3BOfAMCoWL4f2CrcEgg5iTFu2pQMBxlPv5mSEttaz1lGvV7zkFe0c6wO176PSu6UNdAv2ntVVQrxn02YJK3lcoXAQirgIyLj4r6SmusPfTX+rHU6yl4gur8By4xXKXKaDtRiC/ucfYRQOpCLWtSQHRh/L5bhLV6la4GERUs11NFVGmHy5FNwbVP2vxOkHqid7LvR5pCJ8CLu0aQTaGKpAmSFatboWLQoSzN6AjKJ8qpSJloyvlpYNLLiexskcHRX3bFUz0VVmigU2naPT2sAfWh7oEXTNce6131UFTuCguUaVEC3dtYYLCeKkf0V2aTSRduOXGMtJcIqQGDJTRm5B2LhzrQ4NLqyqhcCsqPsQDhcKloPJnzbjBlvaVcqMKEUhxTvWUIq2jLQLYigzyvfKV6mwZknEYcqYez1k5e0KhvUHMc3jHYJ5bK9NSKBwOgZrc960lFQhjJzIAo/RON8zotUvFAfbJfWBGkUS+3+plfqgJc2A/SR5UpJg7bd+4B4iQqzyaCyq1w6JacbhC4SLQtJ0X4BYSz6YQQY+pT58wXNVIS/rA9ofKCAWHXsUDAYp/fWucVZ+hJOxvDWzSX7uXfKcA0VwkmYZSno+ZPIXCRTE1oDhTN1tJ61f97xKyxlf7W86wIZjNUK3So2FUAkhHTuaey48a95jn4eZWKFwU+kZ7IW0tavcPjsS55TFN3jYmwlh97mn7vHznmqiovadgloAQFzYngNvXajkTgCKDYlUmtJ3Hp8SfM0z3hOYBEelR4MtzZtnkOcgbFwoXhWCP+tW8CNMYwJjF9nG0+rWTt+0Z+9e0bW09WkFv81cJqUmP2Ie2MqRuAgnGIxLss9QL0zJqx0HuBWMvRt08pEqlsrKxgGj5XH1yoXAIuJxpIEkavgxIMUT/HH5b0Mo6apmzIlN2GEE10BOCuepyKRVbqDYSWW1vGl8c7GGGKne9VbI/Gmm89qbOi/rDHpVRhcImZAtXTxdkX7Ekr6m2d0l7SfQ23UirZVvgkIUWVl6dPNkIoPNGoYNAEdkWAZx2Bb426Dg5T908l9IaLhSeAWoJUwOfejJQOVQyn0udNv84mOMVGTwDVwoIWchPCE1XTb5H8/ZNRWoj26dnyqhQuBjuF9w6q1R72tZiiSR32QrbRlKTbhipriDQpJl7TgjtksgVVQBNtLpQuDiU6/VGs4WCTHNVSiKlRLbzZ43gKqPakRpotdJSpqiCSr2gkT3vOaMk5FrtifuSQ271VBmimxdjbINGgmh5njyKQuHiyLENPXW59AOjRuTajlZYxttOYrMHzRwtt1fAqg0gSc8QYGMkivdBUMkEujSqUWR2DtIr1AMFolpQ5ldsMRpy7LxUK6laEkSy31YTnOcpkFYoXByK3LPwoKVm8rZ8bitHF3TbtO5zGYNSQYqFcqc9lPYxXIbq/0s6Sz2snIJTr3DPT/eC8fo855A3hBbyy1Z7q7scqlVZSWSe9xODhcLFYRXL4JBVMKO6/rWfVBWUF+la2oNOQYrGa0SHt4ChkmOR2+Q696vkFHTjeH2CnEs2y7d54YQiDNKmOmVIh3p961kofSwUrgK5URehYAm38En3/WxwkxksW2RWFDJMNXerepKa8TodOCPXcwpWx6cFddY8PChVsmaF9RltqqeNdNufG62ofDHB9RU88hla9VRDcX2zi8ce2z62ULg4uKlpaFZDgRTRYDpKsHZV1d1izs0IpFdEjPO1Jqe1hspYdNRwTbmdI4gaS+PIwapUMiJD2eEW6G3tyx+p+Pcg1dIGjvStmkVjPz71OxYKh0KOMy9atbcuSntDwR/urz3eaB/bk+ssSDOK1H5usH2tOl7BITcFfZ72g/atLxVkjKNVWemh9zo+5Qj/Z7BbBku5YbTngdzxHgxaiijBOE0CYORH1BwXCouw72t1eU01A4ULH3Pvf+/R820v7jna3zKqFu2sUbSigs/yMyMXyLGfNHqjDfRYZQWeFM9zW63w0je51/Sv+uQ1oL7f33QMde6RbXRWeTeuPE/kLhcKV0GbT6WmIC1hdWOsIL2Sz6+ltrAsJ6SD1D4nUANqi/3M1ebS2k9Scmjb2qjy/3qQ8Vptvd7qm/NsUEPBmoJ9+2SrcL4PlS6OINpsSt33Btve27x5FQoXB/WC9uLNMYOKD5TNqXFlLO1r1lA6g4vLiNp8qxsD5GiMvDmMoHTRa5xjDmVm6FzmttjCqr9UNK/3VC1zvgdNbhuB+5uvkdLh+vq/lFKhcBVYaVJDF6ktGCvBFc0cZ1thNMXfDP5EsD2W1Q90yuRjoqggaONnRtaDgRthIfrMML3WTSMLJxQm5Fj/JBd7CdI87XuMV8xa5BaPC3pefbIbQK7gjLba3QpXgQgsN6+9gKUlwHCp/Ld9fkQGZ7XMcfuY0VOGn+P2jdaAPOZoldI87rnfC5rgxhXlGusL9bj9au/G4ig/2kJZYR/5ZYQ9pK3s3VOoLYNZor9toKlQuCjsvdqLl6vLuBjTqwcVR0iJtK+Zo3SMnGwrdSJwxdW0goMIrtdatVqkUSQ1jWfLXKsMOKIbzlK5odWyNdbe/bViuukYEpVT0HkW3oPt4KpC4aKg9tcXN7x30EVrdTXGQq60fX6Oms+9h7G3sF+VK2WsOmRc+ORfgIGJwo6O901BEWAR2XYaeEvGxVVegyz08DsLnLWwJ5dSkorxNwA3Cqu793DDC4WrgJ5RbwDExrjFXD1u4JYqpSQpkxw+zBBzIJWL3krp/wJNNHaXunkEliCFsfPxTNVsGXL8wKBUzahAnxcg5eOGkq1tblhZJ7y1BLJQ2BVKCPPiR1HVVBdsc4lzVBurM8Z+tNUP1sIGVrw1BRRTFGCCjAZbucl+PiIoirwl0MMYlQ1OoTdg3Tg+kzSq1b1QuApIdvb7UOJiMFpxRyTbIrXh9faaeTwrYJb8yV1aUTPoZF/5Off9vyfxb6typmJUMUnlCCy9W7CthHL8PaVFe0PlyjsHUe3cZxcKF4fVKCOzSYaWEiR9vnWKUihSPK17ilbaXIkU1Suu97iCe0EiRulnRpzF81ZfLnimfBhsv6ds0RbhnwM3AyuuaHOWNIoYp/s/VShRKFwEgicuxJY0kOD5gxlQOZXpusLrBq3AHre6pkss4uw8tJX1+2LpEedxNNy0lBDaV+v60TXTtgWKaBcKVwNpz1zpkgoLckaLHGj73FYqOGhhuLLJbf3r5FatjupzzVQVaFLQMNVdcyQUV5g6BykMrrBjyzCsQmF3uDB7w9GEDfaF/XNbSL6l746R+ugLLlCtsb3utcHVTpc900dW/1GnUKFwMcip9pFZEVzuoGAN97N9bitz5mkL4tq6avrX5qiNm4K2LdDoxkLharAvG61wKnXA3rF/bgulUVpwZ62ePjP3pPbCqqUInOmTXVvIcDRUV6XMKqG2QuGqGOVN7SUZsYBQ/9wWCiCReQHVP4r587mMFIvyMmDFBwxVJNlYi5uAbFCwl1/TXlcoHAaR1TQgxpOr6IcEoZ+PupXaxjSBtxItPbPBPIsbFOFfI5jUI/OpqFe3ULgq2iIEJX45P4bagp/zua1UM6xXlbvbDzDuqR5YIUP+/PTgtQNMFCeycydb9gqFq8E81Kweohwoj0gsW9meiGc7P3QL21mjIsBa4dp5qC2VNZJp+cPmsTVDk49Gir6Rnjly0HKhsApfF3RBCvIY5a/Fy89EutXvrlHU70llIfOyCV0x5EB7d/jjg6qE2pWX8baQz7TyXrL+thUUl7IqFK6KnGaGuRLmakKIrA0EbWGKqI1AWUKE2VgMBRiQekn46R5oIOCkPNHecQqCV3sGfhRqpPurA0eQrVC4Gqx09oUuSBcmETJCY6espC21pnGt1yIDSmjcRg8q93M1wHLD0kJTw5a3QtVUzs/hlpfqQ+HqsLKlkaTb2aoAnspPCq6FMRP5PjItp0AFVN/IvhVuLhnMaoNtcx5CoXARCPiQ5HRBCibZE75YsBUxO4WGGbvAFb8vwf5T8YP3OZd+j9tCj+kRdbg+UwN9NrBzz/N3Mc5jr86dQuFktCMac6RiqjVsJbe5DRjpN318kDbTXOM31f4UCydl2qI1Ei6ukkcrtqbyBOEzEeRTIajl5iIS7uZlWFW25inIyCKOQuFqENRRUO+iTMlM0idpbFsoGNTKhyb1mpIGfYvg1Opk9VW65/W0nIy08K/Hsoa4lXRRiqhNDextGfqaFXwKOZFO9Jvhtp0/ItSFwtXRSrUQwBaYUd6Xj62lQNLS+74nOFXf66bBBe/fYwIbpIvckpG6ufhc6venusZ6aB0vZUkZbEZ/RcH7zqBC4eJQ8JD5TLlQq57RFWkMR9Ag4VGBQy9whgzlfYOjKeiUKuxds4ZZv2tOM98CUXBqh62Q2mcG83NK+aFwI0DtIS9KKgxyk23V0FFUbqjgooUxkaPXTpGeL9X7VD90EzglCmwvmvI0bhhGcuRnaCgv4bPC1SGPmvq+ih24v2aM5oV6JAVsrIQ5ZkPudPS6Kcp7QqrwI8WJXsRsLdrjtMxgW6FwVbSrKglN7uC53TRbKarbypGuoWitogjFCTnDBvsI8hpwx9tjt6TWWDIthatDMCdXVXs/OVVBlrV6vV8R/JrusaPILRVlzoFS0kDQGrmWu62yKjmJbor2yoXC1eFCzIuSxChIT7QX6xQpOSiil6LpA0JLlMccRXynaKgUd10gzHvlPfXU9uMXU794LdyYSLFIBY1+ByoQ1CAKhatCIbwLPy/MjHZmjnOJ9rfc5l7xcIluEFIglCEYis9LCc8pkh/V/zrSZEp6zamGZZDWKKBmUHOhcHW0NcByo/oyBZeMfGgv2DmunWcj6qtwQdsdYewWChgYi9pb5YWqnrau1M4/J8ZtgZSPKK/ob2+sVm/VVoXCVaEyR0N5XphfGwT7vUyBrKW9JGPsDTd/zolvXFh9q1QLR5Db/aDg2htAUqrmlFpdKaKc0N7P7kF/n1PytYXCrpAqaYNIKUBmhUl1iDVUnsiVJZxmhEU+Tv5FGoYxtLNWe1jVHhzU1bMk79LTSMdTVlNQ8pgdRXKyXGh7dmmkPP5HBAuFq8Iq1Krn2y/SFIJHB/PxtbRykglVZeRnK3M7BmMETdsiyf2xRhThtfK7AXxwUFDolJU0QT9KcX5CbpXyhU6b/B1Exu2pC4WrwsWaU9uwFfx6cjAfR4X3Wdw/RSt0m+e03yR9Mgd1vu0xpujYCuvn2uTOgXmqBl6BhoH0KngJR31mobAanxhsDSJ1hERS2+ASo1MUb6L31n7WKWV6bq+SPjNq1hZeSNuYLL43HLMNIKkJTmMV7CoUrgoG2aZJpF2yHtbcmnwcGevXB0fBoxG1qkmvvFpwBCqG0j1yo1tyrEoK6TPtCW54n+YR/MoCkey6KRSuBgbTGoIcp/2fFU+xevscMuw1qyp32arMlRxBJJghj967ROkcE+OOhpSS31Ua6Jzm9ULhbDDKbwu2hpBCZCKf7eOnUqBpqohepPkUrWErtqiyzpojkdsDKZujP6tQmAUZzVahUFM11UKpldQIPoUavlO3iVypQoMRfI5ywP79a8h1NlaRwoQo7TnG5PzcnNp9sIoq4uU+S5CtULgqpCdaA1C6l1pI6mzXFu+3NOrx3YOqoWgs/VzwAcERcojTuVS4f2plkRuG9AxdqbY/1R41j58SMYXCVWAloqvUXvSMN6EueGvlENrfSX3YkzLaKcFtuVGvHR1jK6lFKE88BRrrHaNV0rc9yHpoKajsrS0UroIHBltjVPf6GsEEhcB8biuldxjjHOQzrbyj92+lGt6lzxtBieV7Bg0/bkEhIvPOosG2BoXC1dAXIfxoMBuq7xccRYK3kACaVdWxRiAVmvvacyntM7UvPgWCYnlsxRBTtcuFwuEQPOldYMEaKw20+7VzKB+qsGBU/N7OzknaN+ojFe3Nx6xsSzeOfubNFtijt5VJ/p8jMVBeud3LFgoXxYOCrQssl6hgXRG8NIugUD53LgWt+pzoWwb716lKUujgRqLaSdDIeeSw5imKPGcd81ZoAexrls3DafPI59wICoWz4QJsL3hpkHQj16pCrKXUkFU7h0EJOo1eZwVtJT9pCLeN5SLTCi3a92DW8W4FQx1JifZC5BoZCoWrwMrVtq4xphzxL9DyR8H2Yt2DVkj7V1FWRjgVBRaYIqKdUO6X+9ovCPYawbSSTgHX9/mD3P5WolSEvB0pqS741ChzoXA21Om2HTF6Nrm+AkF7ur896TPZp75DcGqWazYKKIF0TgxJAb0qp14p4mHBc6AO+GnBt77np3sh6NVK0rip9BrGhcLFQJazvegZD5yrtk96RbWSnlT7zZFSvkCRogn/n8vhUit8bJBBkRXl6mpGV1X1qCBp1HPgRiDAZr/7Ih64D6qh2kIQq/oLBguFi8NFTk0hL0YtaVw/q0c+dgqtei5+tbT2eBm9nXKpGeMjgk8JTg1ktofl5t4/uDfyhkV+xt418Zhgew68jjlVi0LhMIia/lowL0aBH5CeaC/SLWSo3xnsDVPeVkUUDeG2sV2klUIgZQaU05xqj1OoYTV90+C5q2lCIC2b5yn1t/iwYPv5Xx7M8stC4aIQ3MmIqn2rKd56V1sD3sp23mpLqRiubJ/PRcbyjUElfiLAbcBrRHlP6RwC5OfCZzqm4FGvqtgbq8hwoXAVtIX72r5AKd3Tg+1Fupb2nVZOKg+O/YVB4xfblXSJa8XYrL48gWyMPwUazO19He9JHuhg5mv7mW2tdKFwMUhTWM3yQsz5L0oM7R8p+7XPL9FA4R5SM9rMrODG+bdT13qK8Oql7d1nqoICVeRErcptbvV3gvSXaEadApVU9KXsk5/LAx1Enttz8XcpFC4O1UnZn2nl61MS9oRc1/ZinaLVkOTLHKRdpGpUIFEjbN9vJeeCi8QqwkjpFCoU7xWkVfwsQWMmNcO3Am32vHKupwSeGKum9ZF+k+ekjfJzeA1lrIWrQBld1tzaI/YriwbutQUR9qlUHtaAUeptpduU6RzGqeQQBL1EffOzpXaMl8yKKv+KMhtqnDrCXivV9OLBPSA9IyCWvx8KnJVOcOEqaMv8RsoH9pvtxTpHUdqPDb5ecO2QYkbZrlwUEhNqh9vJb1xfBf1WNh6AFZbRukF43GtoEVuVDac6B0ZEjsoYUYDJPrdQuCja/ZiG6xYKD+wH2wt1iVxh+1Zua1tYMIKgUL8fljZpC/wZndW2TSO5KTBK7rv9azs0Cyk8+PxzumL6OmlVS6n26Bwrz1q4KFxwmR6x5zMouIUUS3vBbqGAkECRlVLQyh5TCsRKbSRFViz1ZOx6Xol/a/aWlrGv9tjo9VP8vmCfglkLe9e2pzYb0fNnLXtt0UShcDjsG7N4nnERSksI5NhP5gV6LdrPnqr5dGrnDTc+J8Vx0XuROFKqNTWucFG4mPMC5E629a5WXdFVLmd7oS7Rhcwt7Qvse3p+VAdsKLHAkrk4S8dYYg6U2gor6eh4SQE5e/1C4WJoezTlN/tJa4IscqNym+3FOkV7Os3qo+qklvaaihD6KLPUEY0nc1jxccF+P7qFJGpOKUfsmxpGFHXWVlgoHA6FClm1g4rstYL1SDW/tZyKoCY9P9dZwzhNa+OK6lttR3hspU6flKTZAnv1dlV3DiRYf7l57CeDxN0KhcOhT7Ud56hsL5vNEzSX1pb97U2uZiujcgpPbUJ/q2D21ircEDFvm8+RF6AM0d6+UDgULjJR2bz4lNr1+7B2WtpNoQIItcDKFr8jaCWeOkf51lMg0NZKxyQZaFvfrFXuFYKFwqGQElG0316MBkK1+7CHB5fc2nOoa4bOU/8446Md3JcjSse0IAX6SkFGOZKEWZr9OgVKhvbLGRFGUel+4rrV3+o6JataKOwCeUIR1/bis29tp3gz1j1WVvu//jhGZChasDf9ymBKyog+EyzD1lgEo6gvtuCmy4eO9sBuMueMY/R3aBvyp6ibqNWHKhR2h9XASP/2wrNytDNTBVrmgkFryEjV8DquYoJ8/IuDWcNLatSqzlC5mQI5vXG7kbRVQ6LO7fM9rcrkWE6FckJypFzd0fGTcsACdRrmC4VDwFiVzbUXHtezvehUAFmdBKJODfbIm4rK9m1xDFOxwdsEpWneLti7mS21x2UemNEqB5wSWEt+cPCUaHBCxJwahRW2FZPr6TwMqWpFwQuFXSFI0150VAxfNNjjtYJLK8ypFNhybBVUo+eT6n01syveB6JpcsCCTXpRtdcpyHAsq7Zi/5Hi/ylQrSRn6xxG54by1Oe43TcNblRYuCEQgGmjm/ZfdHN7iBxLg5xbUXQuBXS0xAnqGDild9VqSyh8ajDzXtA6SJ6U/lKbb20pOn1bc6/+jhQiNUy4Dtz8pKwE8Ao3APZ0ZDfzYlPUPzV2/32D5+5f96QVmQoj3WHCbIJUJFkeH7QC4zlSL1NwMzPq8VODmguyFxj9fbTqaZK/DVDdxX23VWn/trYs8u4CfGv7kwsHw0XVipL5gqaCMups2y90isSw29V6RM9rVD/K+O2HlUoeCQEznTh9OaQLnBtu63BTIbCnI6o976SUlRiD/8sGFG4I5FrbKia0QnHl+prauRY1DeJKA812nXIRk3Kroqz2d/0dfQ9SOzwS9nHZemcvO9I3dhMSlPJ73qRJc24gvJH+fJNuclJkvIWlXuTChUH7lj5vW/ggZaJ5XEBF/pAig71Y+6W2FHThhk5p/LaU5nCxMO68yP1LLdD+ua2o2sprTHXTFO8CH50Pcic/KKiJ/5rgtv9+cHSOPW0jCjcUgiZUF0Zf3KlcW/XEUHXZvFiQ27r2gvI+msaqn6SbrGI6iEaR7CMh3TRnrKiy6quCthdrpW72gmj56JxGdNM9VwqncDA0oAvSjL7AU2g16Vvf5ih/q2Vu7f41i+flgxmB95Nw2UuZfwusrFOKFz3tbUXU7XOPjlxTj9TWqNBk6bsQP+gVQgo3FO72msxHX+SIjEpYf7QKqho6spaY9KjUTbrc2tSuOcZCkGlpakBLhuNmppZZ6iln0+4Fx/QdcL0Fh+YUNnxPjwwWbhnk1+YqdJIMtd1vHkk5XcXzVq6pcyMTasSjIVoJ+kntz0dC7vUzg5m+EQl2A1mTj9agT03SNoTC4zkFCLyjpaKSlso/C7cUXDPVP6Mvdo50fol1j547hy52qyf3XJKeFtSUYoTX0B+WY+VOizavXTF0GJ1b06udjgicCXhzkfApA2boGvwF2bijW1Zbn23PPjruiF8WLAnVWw5yLmbTjL7gli5ILrN/1cOuVeo/lVxt9cJt4cEaakCYg5SLoFQrearYQerJSocCQprx1xRWqP4x6JnUi3pnvbDa+fyfIa8xKC6r31Xk/SODihEod4xqm6k+zpU+9lQKWRI0dxC0pOW4ipYixQoYBHJcRDpkHhy02vVBIdVQcrRGaBy5d52jfWFrhC0YAFc1k/3ypQoARsbkd7NH1vMr0sz7WKMVbA+dASQNCqe2GHL/GZlZtaqMfL6bydbcdA7FPgpSe9XAcGFYXVXetO6aXlHBEC6mO79UiXEbwCDaQgnGbKyEMr81e7ajaEXrI8MCQVYtOkrczM8Obu0iEkjSNGC63hoY7KUkcU0s4ChqcFCl5iYjgu7v4v/ULXgPoui6ntwINPJvcZEVfIgp8FCOKOssLEDIv41uKh1UNPFGQf2jDNaKmvlMd20ucXuBXJtc0YwQOz8uNI+BYmEO4FpiuqL9Pl6agwH4O62JQj8gKF2zJWK8J+WArdCKXKzSPJ8+L8yDkAvWayyK7GY89btxpe2tW2/BNaLgn9FbZdWWC7yhYhCT/XgwCmxQbpp8kJuF6HUrf1vYAHddK2Nb3O9LJiDmTqoBnJtJZV/Kx51aJHlN9dKlKMDUzseZc0N5Blk15aKjOZUXqihz//qkoJYWvOcNLsHf1EVsIoE9LG9lLqWyhjyXI7wXfyvRbJ6UbZHtDG1pA8GWApBuZIxekE2Vmu2TlbdV+2jpbyCC7WZ2jRz5HQFBDfukds+p8fshQdPB9bwKLin45lJqYlcquHbVugalmhhmFggwGmV1LqSnBXsJVjW07e8vEu2ClWppH/M32FJK6O9lT//ooBV6zWR5XoGboxsJD4cMDqpOEtQyqtIFL0Cotc3rBebOvSGM6O91jjTsiDWR70yoJW0nu/mS7L+kCqjVu8BdFPR97XVELLlBc8X+16IiARdYrkQZWeb2jSKkAmjeY6WwGuZK+/nB9rjo76Il7jFBHobAW46kXIICfwZnJeuPixos/G3XQlDLPlnpphSQ78n3Qw1Eakj9dq/E4cbb63BN0e8pJdY+5ubHI7GSkmp1zZAKclMjdSNzYJX2s1hC3iyTbiqFM+FCsoq2+1FftC9fRFKHjelv9kIuYnW9VBk858tqq5sYsC/siA6bUyjCm0YqPdMGR6xYLqiUZHXxL2k9Ja1kVkpdS25cc3XKOaZyNLnATUXeWEeU1/nXPlCgSPGDlVyaaUsEljRNH/E2mtP+s31sitzbXkJHlNzNRmDSlogAn+i3n+1TeSdiBq4Z25LRSl/YCe7qVoy2pcqF7OLljgkWiI4qn7NKpfKg1dfjjJNrJhKb/ZFHkIFILY2e66lUUbXQE+77WWcRiI6me+cik4e1R2PY7UXOo/C8bUE+NqILW5RUcM6NzXsEVtzYltxIf2N7udz7CRAJCqF9oPiA2EEOzLJykueR3nGTsde0AvKEFKyMykJFqE9NKSWz9FOuXZzAtsBjPJLR63sWdoaInoug34+6UFwQ7vZylvZMIp8JezMXjYt6lLrgZi51qyzRhSvoZXX3M4OdqyBiBG2ZpIteWqp1DRlZRsDdrLLBwQ3J38LnZcCkDfCYYXvEHvFOpO+tcBBcpIIYfTTQntUKSl931GBtD8VtE5hp3T3RV3tBx+QyprFtoWi1Y2YQyOpj/9W/biuzWMKKm48RYBNw8395Zn2zcrSMWntfjsX09/msYL8vLP5/8rAKB8Mqw8XiBrZ/fKsmeRDh/ak0hv0hV5D7LLgjnC8XKpBjr0P0zB6NO8fg1rq0e9IqyZ2bcm/tuzUHWIm5j9xodbaM1p7M725qPI9h9P67nf5+R8vsFBqobrFPVevK4Novg0tpxZH8nuoeYZzC9PKMXEmGIcjS1r4KTsjpWrHtd9XYXsN4W4pyZsqGUWeJpQCN/KC0Svv6u522G7ZNqsQEtqpx4IoQoJEnlA7ogxTC81xcq+UIIsbytQIf9nmCH1ZmeVqG3rvTVmUrlla4do+4J+1TBUhGz01RGkNP7+i5u4G+CzdoASaurZa7dw4KLlad8A2E8LzaUvm7titGEEe5HuEyrxlVp8gFKiho0zmMRojfys3gpVG8Tu5Ssj9fV7wsbXV8L/bjDw0KKkodrSm3LNwwqP6hKSx9wwVqv2hurBSCVI+cYS9nYi8rQCNYU9HUy3LOUxHAE2STdivcgdDEbUVUFNGPX7RH5SLLBwomvUYwxcPsWY3CEFWmaaQ22R6RiyXi3B6nuI1unooXBPR8N/aQChnECpQq+j7aqjNxhCmR98IdCFUsCiQEnLhPfTAK3bmlbOxX1ejal2rTUk1kBSbNgjoyNIDL2UqTCDrJ8UqhKBxwbCtyTykd+2kpHXsrQSLpFy5734N7J1FBgqi2LYiA3tKsH1sUtcrqjisQdJfDnpMLLAosqGSlnGtK97z9qQCOoIWSR21UosRK/wSgBDDkfslmCmgoxjCPhcum8siqrdfWxapUrwXD1yrnJqEyiQfA4JOCXs5BlZHzsOpYbdS42ksLpsgTK8NsO5Naci8v1cOqsESg67HBdq5uoXAWdOe4oJTdyU0ySO13ayRbGJX9r9ym6iIrLSPOXO0psIJbySnPm0znhuBmsGaF8R43kjbvrNxOAIaA2lGRa38rN5oPC7op1WpYuAgUGXCZrYp6R83S4apauVQnqTPtA1Y9RZ69TurFCii3R1dYkYZ9mQta3a/idyknxQtTmr054pBryJCdm0S+XlTpJtVNItiKN5xjqybI3fb5a7SWeiqkYOiOqVPFPtIWQoBHcE7wjqtqS3COAmKhsDs0a1vllCra+5qJw81z4Rq3yDVVA8xI1/RtCm5xcZUB2ier89WWphgeqTigVd7j0kmOnTXA55CbypCJm7mhaHtjjNrXtCFy49c0sBcKtxYCJ1Y+Bm0fKsJpNWXUdJbIjNCTElAShVZRs7RfHtHr0Q3BPlQAR0WVOmD7VsEcrYJWRKuh/bDcs/OxqpvWZq9dKBQWkA3ZVmuurZ5L+2ZuJddb1Y0URlJaSfoog1VuBNxgLqiAllVQgAurKKBQKBQKhUKhUCgUCoVCoVAoFAqFQqFQKBQKhUKhUCgUCoVCoVAoFAqFQmFv6NfUVKzhugSq7lxoejdNHHuJmcINBt0go+9bhQFCXtq3CncOKGDoqW1n3lCRmFKoKNwg0OUZDV/SzEwEu3BnQI/sSIycSgWZ1sINBV2hrw/2X1ySoVI5KNxu2MJQPpzSijK4igZU4YaBogD1vSUZyjLU2w0GapQEbaXR95v0PRs1caNxt8gjkgkhR0mDZ630JJfIuInC7QGpU1sZs2TXTvUmlNYOl75RIPMoWEJEysXrziMCRsTqLYJk+2naWH0IMCdp3bxsMLVbp0jf1S/vGO37k47rOZ/j85I0dpwHIS3/0nQ1Kv5JQfqr5B+JXhG7WjP9SpCIGNcpA3Mpw9MAKtx8mNz+0UFi36Pvco7Evwml3Ug8Jjg66ZbU4fj1RhokjTEgJSk6SnlujmQhvb59f9Jxl+Qo5+jYxLDmQK+Vizt6/xr+UtDkrcLNhogtVcTRd7iGbsg39ns2U2N00reFvIEluMueIt6crBX1dsBsnVM8piRt4Bv7PbuIvzR41KiAo/nE4BLsvwkym4EyOsYSTfkuEeebD98zzV/q+KPvcYk32lATcktzKYqbSl/MWhiuZCSDFXJ0rClatUeDhAs3EwJ/ZsiIu4y+zyneCkNNGG9gavXoF5kjlXRTuQwp+oT7/h3RcyaKea2Rf18VVBEiAW30nxC66NvoM0Z8h+BWiPyacTk63oiGKFXFyu2DyO+WFfZWGSrIGW7Z0xnuanjuOTCA91mC/riSzu6IDHf0eUljEMwXORUfGxwdt6fJYqXWfnthvs7UOMeWt85QwRDcpUKApKE8R0BKxQSx0WeiaLHZI+dAmmd07JZlqLcfYhSj77blrTRUMGdz9Av1/OTgkZBDHX2u9JBc7jmQvx0du2UZ6u2HiLBU4ej7Td5aQ7VfHf1CPY9aUROGDxnf13+u0X0vGjwH8maG+fbHblmGevshl/4twdH3m7y1hmqvumYjfrShwoOD/Tg/Qa9zux3si40MbI/bswz1zoDKttH3m7y1hqqp1qo1+qVaXsJQ4ZuD7edKsyxVJa2B4bftcXuWod4ZMKh59P0mb62hiuRK9o9+qZaXMtQ3D7arqsnWewywVT/c/j49y1DvDKgbH32/yVtrqPcLGuU++qVaXspQFR0YMZ+f+wtBU7HPxVSwKlmGemfg/YKj7zd5aw2VXIVVa/RLtbyUoYK0kZHxvxVkYHvg8cHR75UsQ70z8Ojg6PtNlqHuDEUR9s97oQz17kAZavA2owz17kAZavA2owz17kAZavA2owz17kAZavA2owz17kAZavA2owz17kAZavA2owz17kAZavA2owz17kAZavA2owz17kAZanAv0Oh9RPCDg68V1J50NMpQ7w6UoQb3Al2lPC4FhzcOHo0y1LsDZajBPaDo/keC7bHfI3g0ylDvDpShBvcAjaReAfFcTaQ1WDJUjeWXcMELx6IMNbgH6B8ZfZHHpYl0iSnQS4ZKDfE5g9eEG8XzBM3qefugeTwfHqTW6F8X4ZsEzfq5Cau/cyBzo9vpXYPOs6VzFocwY8j2xvxZukZH6ieXoQb3gFH87XF99poBUOdiyVB9gS8QvDQov79m0EVtMBalf/N6RueYNLnM8Cx6xyRYL42XCX5E0DmYgtfL50zRbFKSnqRnDfN6l+DeRrOXob5ykC41wQHT6V23bxM03IxkELnbV2xo/i5ZI8emKW3xGZFaiec3Y62h7qVC2ItPfWvwJkR9fzl4yeFBpuC5qH406AIendMaMm7TAS6B+wddvL8bHJ3LKfy14AODe2EvQ/3O4Oj96Mb0B0FaYy15h1QQ/U5TNHDNv18YfObgaqw1VMr3p4ARuuub6/IhwV4h/ynBS+CmGKpRDMZILslabqGxDgz/SDwqaPUcff65tLruhb0M9YeDo/fvRXOgrNqrsdZQveaNggI/rx3krtkv2X+Ys2qPwn1Dqy+X4clBYmUEsKcE1IhRXQLXNlTujrTUnqtRS57KEZ6J/eTnBkefuRfNQ9oLexmq6/r3gqNj7EFe1EsHV2OtoaK7gBXRvNNz3LWWDPsSuKahPixI+2n0uUkG7KYliCRd9TFBbu0aKdekG+feWFL1c+18SVDgy3m/WdBF7nv92uCaGUcCeRQ99sBehgovGHy94AcEzU7i7o6OuZamUvieaZQRYduELYZ6BLdMajsH1zBUQbI1Q3dpQ5nIPoKghSnxo/f13HsbQRFyalSnQV/vFlwyMHI6jHhOAN2N/yWCe2DJUM+ZgytgxNBHx+3p70bdk2fp78TgXz5on//swc24tqG+U/ASuLShkmH99uDos1qqzBJNnAOlSFPxRu9vadLASRfBAKPClCSv6g2DW2Ac/5yK/UODe2DJUO2zxQlOxY8HR8dNcpcZ50OChN93QxnqvdzTUO0VvzI4+pyeZv+sgdD+0vQ9F8m5UwUS8p6jz0Au7Skw1lK0c3TMvdJ/S4Zqy/aA4Cn4wOCUhyFlZtjZXp7Bn8BaQ/2VoP2KvdPHBY0z9O8XBd3tvzpoDqrcmpTDzwaFoZdybHeiob5UcM38V6+Re1uLTwqOjtPy1Iuwx5wO8scHTwVjdZ30x3Td7IElQ7VP5IJuBb1gLvromDynVw0eirWGuvWOJyXjwn9QcM7luRMNVUfQmmCbKPAWOO7oOC0l388FY5LfHh0fDao+B/a1vei7dNULBc/F3obqb/EZwdGxBPqkHI+stHoG1hrqOQUPlO65S6Pj3omGavqc5Pfoc5IS6lv3k9zfpcij4NO58H39YHB0fHxq8FxI8/U3Mym/c7GnoapL97uOjvNzQaWTF8NRK2oPNZ4ibv1x79Rg0txUsS8LnlJXbCX6xeDomMm9DFU30ej4+IfBLS77FKQ9jC/5oaCSREGzc7GXoar2+t7g6BjfFHTTvCguZajgi+mPe6caqtTMRwW/J+ii153zBcGt0dIWDFUV0uj8k3sYKoOZW1GRge0RuNrbbdzDUG0xpgJ3Xxrc44ayGZc0VPmr3wi2x71TDTWh6D55LrjKZvKMzj+5h6HqilFNNjp+y18KKtC4STjXUDU6TFUkiSlcoi59iEsaKvQ+vz/MJXAtQ90T9kxLKZo9DBXU346OP6IyUUHDm4BTDVXQSDR7lH6RuTi11n03XNpQ9Se2x/XzJXAnGKrzW0r77GWobxUcHX+OovvawHZN9G/EKYYqfjKX9/7u4NVxaUN9tWB7XPvWS+BOMFRbh6lcXnIvQ7XH9jcZfcYSvz+o7vc5gpfGkqEqTGgNVVDsx4Kj1yZVI+0xo/csXNpQwR/THYzPr9TuErgTDFXSfaoyJrlXwQPoiBp9xlraw350cK9qqTVYMlQpoawesr/+7eDodT0d96q4hqFeA7fVUDUXv2TQ/mmpk2bPEkIQABOpHn3WFuqg+bzgprauE7FkqKgWV7PE0k2vpTbNFwleDWWo9/KmGKoUjET6Y4JPCMrlyVuOzrmnDpW9G8hdH3sYKyrWEKQ68oJfY6inUpns1VCGei+vZaj2PqRItPsJxkhfteJvW0iPiPDZEeB2a20bfe5WkiNxvCP0no40VLxaOqoM9V5e0lAFat4gSAFDKdpacbAlHmmoQNTsG4Kjzz6F+mxfOLgnTjXUtWoOapKViF4cZaj38hKGqixNcGWppzEpQunCUCBPRWEph3q0oSbeOjjVq7qVlC/23LtuNVSVXg8PkrFdKzmzp3TMapSh3ssjDVUw6LOCpEBHn91SPbQyNfKUIritlKqLaW6/eilDBUEuVWV7iICptjpJQnOAtYYqkCTARb4zoSJLznT0+p5c94uiDPVeHmGo9p+KzZcM1PMCFcTjqDVOQY3pnPbSJQ014ZxoJMmdjs5pLfU174E1hko32TmPQPx8KVeNuqM2qQieizLUe7m3oVpFvys4+qykvekTg3R01mCpKP8ahtqCMLV2xjVN8z1VDPEYzsUaQ9UUP4clQbfkTwdNNrgIylDv5Z6GymX91eDoc5LUL4iHbQFDJZg1Oh5e21AThNq+PLg1SGb/fi6WDNVqurQSakEU5Bu9vydP6CKF+mWo93IvQyUxuSQNKt95ihLDbTHUhHzwklfRUoDqXCwZqgCd6PUSiJOtTZOZs3M4njXYy2KMWIa6DmtEzQxxPgVLbW43zVBBrvSDglzb0Tm3lKc915VcMtSlNrcWxMpGx+hplRYJPxQKp9cs82WoyyBwtaSV5HO0q50CF3Hfz9tyL0O12u+xX2xhhVrKVRKnJit6DvY0VN4mCdbRcXo6dw0nh0Hyds0clDvdUBWQt6H6U6BncXTslno3TwW3ei4iuYehEormHkoDuej3BBdxdN5JF/u5A6/2NFSw314bHCPOTYHyEOgkWNNBcKcbqpvVuRf51wVHx255jqEaCzm3Yu9R66ujKY9njzal4H8K3AjnFgUr7rm6uGv2qFv1nvoe6jnaRh4yvpM+DLX20Ye2pCl7mzGnU4vumue6e2uqdQRXqAmcAq75nKHKx54ruakRoD0m4TFxjL1AQ6o9fkt71HMLH3QZjY6ddPPZqsGrEGJKRXNE/a17SJ/+MaztOVzKPd10SKiPfq+W587pnNMvTroYT125lxrHVdu8fvAcqNbpj6t7Zi8QeeuPn7QfPFdbSl56dOyWDwpuhZvkkrBcSyL054zO+BNYe6c4x2W7CVgj1nXunE59jqPj9twqvA1WYcdf6qGkDmjFUOFE0lLhhTGZBhW9bXBJJmVkqEiE+txuF+cz5/qeq0vkb7QmHXRq1N3fdctEN3vWPbSK72kyXhKKTjrBiwoO7wgdGmtatARQzvnDvldwdNye9klTJWw91PqSGN2SjxQwkW+Vz+2HDzvHOUwZKho9aDrbqVC/PDoucunPlZHR57rGkHg+p+JdgqNjTtG++5HBk4si1GiucdVa6iN87+Ap4tHXRL/vmqPfkRHZl2wFV2dNvjBpzD4RMZF3Re7cPukykUMT3kwnUKY2eu+pNKRpDnPC4aji6v2DW1NZbxecWxS0/J2LpYBh0j516YY1B4HV0XHnqANKRH0TXAjujqMDrqHyN66wgnOqc1wC+65rqs+NYJ6l9rDR77BE0TtDsPSNqmRZk4hnaGunuLWUVuEmSRH520pTjF53LnkMS3tYQ8BG7+1JXkWXD3da3lWk083fDQfdzNUwG6doezVXTmj1P3VmKWiTW1ufm3Q+Tw1aIRXi+/y1AmZu4qbwjY47R4URuo1cVwokDH3GZ5Q08t2N0dNqxbLXtFttoROw97CBdre5ipJ4A788V3Gp+GAtrQQCCfaIS96Ei7N3N/eglf7TgmpoR88vUS/rmwaXQAJm9P45ipg7vj5b18DTg6b5rbnO/F6nDrby+5jKfu7fW4BOe6Fo7XcEHxVc2o8r5xQRHx1vK33+PUL0r3vfA5eiRtxrQQfHqVIma8iLWAJ3dk2r1BoqGZQbbF3NtS4e+lu4waxVUiA1MjrOEbS6rO0c6vGWwb2UMUZ8n+ASFKCoNBu9fyvl4O9ZZkdPHkX72GvhscHROe3FDw2ugbv9UgfNHM1+4Za1jeMJHhK3bfS+pIvYMKOtwTF7ZKm4uVLFc6nAhot9Tn7WnnZ07L0orrEGcu9rJUfnyNu9524qGe/CEQn0fxbslzXrUrrABSin6uLwb/6fkLIkstcZXixP5SIhR8HV+ZkgtwcFPoTYryG8nOBGORfSmv6A/s8Nc6669w3Rdf5kN/w+fq+efl+/x1OChjTL/Xm//edcY3cPSW9fuP3c6MtpaftgUps9tbpY+7w5qEP12t69N3DaeZ+bFlDhJKDl/KV81vwOc3SerpXHBffQHDKXdPQ5/o62KqL89v2+f5/r+8MfCPr+7TF9t/lvfse2OLhmm5CQf1cVNjqfpBun2INzc106N9+V79znP6PQQ3jY/uqIoav89a2zPo+EwI/8oQCHc7s2lM754t0YXBgulKQbw8OCelhPCca5owvYIOM86ibJ9TbT1OdQTHQzMCWcEbjg2vyulIRGD3EC+Ve/n/M8tSJrBNexLV3+7mIwfn91vOqFpWpck1u/f3vTU/LFbj4WO9+pyPp7Bp2XYKTzEtiU2tJ0IHDFU/Jd3fedP9Mz/T9VQqqAgnsVBQAAAABJRU5ErkJggg==;fontSize=14;" vertex="1" parent="1">
          <mxGeometry x="167" y="2881" width="155.22" height="199" as="geometry" />
        </mxCell>
        <mxCell id="NUJJkoM4LNsQMDwtqZOB-11" value="&lt;span style=&quot;color: rgb(0 , 0 , 0) ; font-family: &amp;#34;helvetica&amp;#34; ; font-style: normal ; letter-spacing: normal ; text-indent: 0px ; text-transform: none ; word-spacing: 0px ; background-color: rgb(248 , 249 , 250) ; display: inline ; float: none&quot;&gt;&lt;font style=&quot;font-size: 23px&quot;&gt;Flask Server&lt;/font&gt;&lt;/span&gt;" style="text;whiteSpace=wrap;html=1;fontSize=14;align=center;fontStyle=1" vertex="1" parent="1">
          <mxGeometry x="198" y="3090" width="80" height="30" as="geometry" />
        </mxCell>
        <mxCell id="NUJJkoM4LNsQMDwtqZOB-12" value="" style="rounded=0;whiteSpace=wrap;html=1;fontSize=14;strokeWidth=3;fillOpacity=0;" vertex="1" parent="1">
          <mxGeometry x="138" y="2870" width="210" height="220" as="geometry" />
        </mxCell>
        <mxCell id="NUJJkoM4LNsQMDwtqZOB-13" value="" style="shape=flexArrow;endArrow=classic;html=1;fontSize=13;fillColor=#ffcd28;strokeColor=#d79b00;gradientColor=#ffa500;" edge="1" parent="1">
          <mxGeometry width="50" height="50" relative="1" as="geometry">
            <mxPoint x="366.99999999999955" y="2952.5" as="sourcePoint" />
            <mxPoint x="608" y="2952.5" as="targetPoint" />
          </mxGeometry>
        </mxCell>
        <mxCell id="NUJJkoM4LNsQMDwtqZOB-14" value="" style="shape=flexArrow;endArrow=classic;html=1;fontSize=13;fillColor=#d5e8d4;strokeColor=#82b366;gradientColor=#97d077;" edge="1" parent="1">
          <mxGeometry width="50" height="50" relative="1" as="geometry">
            <mxPoint x="608" y="3015.5" as="sourcePoint" />
            <mxPoint x="366.99999999999955" y="3015.5" as="targetPoint" />
          </mxGeometry>
        </mxCell>
        <mxCell id="NUJJkoM4LNsQMDwtqZOB-15" value="" style="shape=ext;double=1;rounded=1;whiteSpace=wrap;html=1;strokeColor=#d6b656;strokeWidth=3;perimeterSpacing=0;gradientColor=#ffd966;fillColor=#fff2cc;" vertex="1" parent="1">
          <mxGeometry x="618" y="2840" width="240" height="295" as="geometry" />
        </mxCell>
        <mxCell id="NUJJkoM4LNsQMDwtqZOB-16" value="&lt;font&gt;&lt;br&gt;&lt;/font&gt;" style="text;html=1;strokeColor=none;fillColor=none;align=center;verticalAlign=middle;whiteSpace=wrap;rounded=0;strokeWidth=3;" vertex="1" parent="1">
          <mxGeometry x="723" y="2845" width="40" height="20" as="geometry" />
        </mxCell>
        <mxCell id="NUJJkoM4LNsQMDwtqZOB-17" value="&lt;b&gt;&lt;font style=&quot;font-size: 22px&quot;&gt;ENCODER&lt;/font&gt;&lt;/b&gt;" style="rounded=1;whiteSpace=wrap;html=1;fillColor=#cdeb8b;strokeColor=#009900;strokeWidth=3;" vertex="1" parent="1">
          <mxGeometry x="643" y="2865" width="190" height="50" as="geometry" />
        </mxCell>
        <mxCell id="NUJJkoM4LNsQMDwtqZOB-18" value="&lt;b&gt;&lt;font style=&quot;font-size: 22px&quot;&gt;ENCODER&lt;/font&gt;&lt;/b&gt;" style="rounded=1;whiteSpace=wrap;html=1;fillColor=#cdeb8b;strokeColor=#009900;strokeWidth=3;" vertex="1" parent="1">
          <mxGeometry x="643" y="2990" width="190" height="50" as="geometry" />
        </mxCell>
        <mxCell id="NUJJkoM4LNsQMDwtqZOB-19" value="&lt;b&gt;&lt;font style=&quot;font-size: 22px&quot;&gt;ENCODER&lt;/font&gt;&lt;/b&gt;" style="rounded=1;whiteSpace=wrap;html=1;fillColor=#cdeb8b;strokeColor=#009900;strokeWidth=3;" vertex="1" parent="1">
          <mxGeometry x="642" y="3060" width="190" height="50" as="geometry" />
        </mxCell>
        <mxCell id="NUJJkoM4LNsQMDwtqZOB-20" value="" style="shape=image;html=1;verticalAlign=top;verticalLabelPosition=bottom;labelBackgroundColor=#ffffff;imageAspect=0;aspect=fixed;image=https://cdn3.iconfinder.com/data/icons/google-material-design-icons/48/ic_more_horiz_48px-128.png;fontSize=13;strokeWidth=1;" vertex="1" parent="1">
          <mxGeometry x="697" y="2915" width="75" height="75" as="geometry" />
        </mxCell>
        <mxCell id="NUJJkoM4LNsQMDwtqZOB-21" value="" style="line;strokeWidth=7;direction=south;html=1;fontSize=14;" vertex="1" parent="1">
          <mxGeometry x="732" y="3135" width="10" height="225" as="geometry" />
        </mxCell>
        <mxCell id="NUJJkoM4LNsQMDwtqZOB-22" value="&lt;font style=&quot;font-size: 22px&quot;&gt;&lt;b&gt;GPU&lt;/b&gt;&lt;/font&gt;" style="rounded=1;whiteSpace=wrap;html=1;fontSize=14;strokeWidth=3;gradientColor=#97d077;fillColor=#d5e8d4;strokeColor=#82b366;" vertex="1" parent="1">
          <mxGeometry x="643" y="3360" width="210" height="95" as="geometry" />
        </mxCell>
        <mxCell id="NUJJkoM4LNsQMDwtqZOB-23" value="&lt;font color=&quot;#ffffff&quot; style=&quot;font-size: 35px&quot;&gt;1&lt;/font&gt;" style="strokeWidth=2;html=1;shape=mxgraph.flowchart.start_2;whiteSpace=wrap;fontSize=14;fillColor=#007FFF;strokeColor=#007FFF;" vertex="1" parent="1">
          <mxGeometry x="-472" y="3230" width="55" height="50" as="geometry" />
        </mxCell>
        <mxCell id="NUJJkoM4LNsQMDwtqZOB-24" value="&lt;font color=&quot;#ffffff&quot; style=&quot;font-size: 35px&quot;&gt;2&lt;/font&gt;" style="strokeWidth=2;html=1;shape=mxgraph.flowchart.start_2;whiteSpace=wrap;fontSize=14;fillColor=#007FFF;strokeColor=#007FFF;" vertex="1" parent="1">
          <mxGeometry x="-32" y="2820" width="55" height="50" as="geometry" />
        </mxCell>
        <mxCell id="NUJJkoM4LNsQMDwtqZOB-25" value="&lt;span style=&quot;color: rgb(255 , 255 , 255) ; font-size: 35px&quot;&gt;3&lt;/span&gt;" style="strokeWidth=2;html=1;shape=mxgraph.flowchart.start_2;whiteSpace=wrap;fontSize=14;fillColor=#007FFF;strokeColor=#007FFF;" vertex="1" parent="1">
          <mxGeometry x="463" y="2810" width="55" height="50" as="geometry" />
        </mxCell>
        <mxCell id="NUJJkoM4LNsQMDwtqZOB-26" value="&lt;span style=&quot;color: rgb(255 , 255 , 255) ; font-size: 35px&quot;&gt;4&lt;/span&gt;" style="strokeWidth=2;html=1;shape=mxgraph.flowchart.start_2;whiteSpace=wrap;fontSize=14;fillColor=#007FFF;strokeColor=#007FFF;" vertex="1" parent="1">
          <mxGeometry x="452" y="3040" width="55" height="50" as="geometry" />
        </mxCell>
        <mxCell id="NUJJkoM4LNsQMDwtqZOB-27" value="&lt;span style=&quot;color: rgb(255 , 255 , 255) ; font-size: 35px&quot;&gt;5&lt;br&gt;&lt;/span&gt;" style="strokeWidth=2;html=1;shape=mxgraph.flowchart.start_2;whiteSpace=wrap;fontSize=14;fillColor=#007FFF;strokeColor=#007FFF;" vertex="1" parent="1">
          <mxGeometry x="-19.5" y="3041" width="55" height="50" as="geometry" />
        </mxCell>
        <mxCell id="NUJJkoM4LNsQMDwtqZOB-28" value="&lt;span style=&quot;color: rgb(255 , 255 , 255) ; font-size: 35px&quot;&gt;6&lt;br&gt;&lt;/span&gt;" style="strokeWidth=2;html=1;shape=mxgraph.flowchart.start_2;whiteSpace=wrap;fontSize=14;fillColor=#007FFF;strokeColor=#007FFF;" vertex="1" parent="1">
          <mxGeometry x="-202" y="3135" width="55" height="50" as="geometry" />
        </mxCell>
        <mxCell id="NUJJkoM4LNsQMDwtqZOB-29" value="&lt;span style=&quot;font-size: 23px&quot;&gt;The web app sends&lt;br&gt;the input article to&lt;br&gt;the flask server&lt;br&gt;&lt;/span&gt;" style="text;html=1;align=center;verticalAlign=middle;resizable=0;points=[];autosize=1;strokeColor=none;fontSize=13;" vertex="1" parent="1">
          <mxGeometry x="-122" y="2881" width="220" height="60" as="geometry" />
        </mxCell>
        <mxCell id="NUJJkoM4LNsQMDwtqZOB-30" value="&lt;span style=&quot;font-size: 23px&quot;&gt;Flask server sends the &lt;br&gt;input article to the &lt;br&gt;BERT Model&amp;nbsp;&lt;/span&gt;" style="text;html=1;align=center;verticalAlign=middle;resizable=0;points=[];autosize=1;strokeColor=none;fontSize=13;" vertex="1" parent="1">
          <mxGeometry x="358" y="2870" width="250" height="60" as="geometry" />
        </mxCell>
        <mxCell id="NUJJkoM4LNsQMDwtqZOB-31" value="&lt;span style=&quot;font-size: 23px&quot;&gt;BERT Model generates&lt;br&gt;the summary and sends&lt;br&gt;it to the flask server&lt;/span&gt;" style="text;html=1;align=center;verticalAlign=middle;resizable=0;points=[];autosize=1;strokeColor=none;fontSize=13;" vertex="1" parent="1">
          <mxGeometry x="348" y="3107" width="260" height="60" as="geometry" />
        </mxCell>
        <mxCell id="NUJJkoM4LNsQMDwtqZOB-32" value="&lt;span style=&quot;font-size: 23px&quot;&gt;Flask server sends &lt;br&gt;the generated summary to &lt;br&gt;the application interface&lt;/span&gt;" style="text;html=1;align=center;verticalAlign=middle;resizable=0;points=[];autosize=1;strokeColor=none;fontSize=13;" vertex="1" parent="1">
          <mxGeometry x="-132" y="3099" width="280" height="60" as="geometry" />
        </mxCell>
        <mxCell id="NUJJkoM4LNsQMDwtqZOB-33" value="&lt;span style=&quot;font-size: 23px&quot;&gt;&lt;b&gt;BERT Model&lt;/b&gt;&lt;/span&gt;" style="text;html=1;align=center;verticalAlign=middle;resizable=0;points=[];autosize=1;strokeColor=none;fontSize=13;" vertex="1" parent="1">
          <mxGeometry x="655" y="2810" width="150" height="20" as="geometry" />
        </mxCell>
        <mxCell id="NUJJkoM4LNsQMDwtqZOB-34" value="&lt;font face=&quot;Times New Roman&quot; color=&quot;#ffffff&quot; size=&quot;1&quot;&gt;&lt;b style=&quot;font-size: 23px&quot;&gt;WEB APPLICATION&lt;/b&gt;&lt;/font&gt;" style="rounded=0;whiteSpace=wrap;html=1;fontSize=13;strokeWidth=1;fillColor=#4D4D4D;" vertex="1" parent="1">
          <mxGeometry x="-377" y="2910" width="230" height="150" as="geometry" />
        </mxCell>
        <mxCell id="NUJJkoM4LNsQMDwtqZOB-35" value="&lt;span style=&quot;font-size: 23px&quot;&gt;&lt;i&gt;&lt;font color=&quot;#ffffcc&quot;&gt;CoVShorts&lt;/font&gt;&lt;/i&gt;&lt;/span&gt;" style="text;html=1;align=center;verticalAlign=middle;resizable=0;points=[];autosize=1;strokeColor=none;fontSize=13;fontStyle=1" vertex="1" parent="1">
          <mxGeometry x="-327" y="3006.5" width="130" height="20" as="geometry" />
        </mxCell>
        <mxCell id="NUJJkoM4LNsQMDwtqZOB-36" value="" style="shape=ellipse;strokeColor=none;html=1;fillColor=#FF8000;" vertex="1" parent="1">
          <mxGeometry x="-371" y="2914" width="10" height="10" as="geometry" />
        </mxCell>
        <mxCell id="NUJJkoM4LNsQMDwtqZOB-37" value="" style="shape=ellipse;strokeColor=none;html=1;fillColor=#FFFF00;" vertex="1" parent="1">
          <mxGeometry x="-357" y="2914" width="10" height="10" as="geometry" />
        </mxCell>
        <mxCell id="NUJJkoM4LNsQMDwtqZOB-38" value="" style="shape=ellipse;strokeColor=none;html=1;fillColor=#00FF80;" vertex="1" parent="1">
          <mxGeometry x="-343" y="2914" width="10" height="10" as="geometry" />
        </mxCell>
        <mxCell id="NUJJkoM4LNsQMDwtqZOB-39" value="&lt;span style=&quot;font-size: 23px&quot;&gt;BERT Model leverages&lt;br&gt;Google Colab&#39;s GPU for&lt;br&gt;RAM and Disk Space&lt;/span&gt;" style="text;html=1;align=center;verticalAlign=middle;resizable=0;points=[];autosize=1;strokeColor=none;fontSize=13;" vertex="1" parent="1">
          <mxGeometry x="471" y="3258" width="260" height="60" as="geometry" />
        </mxCell>
        <mxCell id="NUJJkoM4LNsQMDwtqZOB-40" value="" style="line;strokeWidth=2;html=1;" vertex="1" parent="1">
          <mxGeometry x="-560" y="3480" width="1510" height="90" as="geometry" />
        </mxCell>
        <mxCell id="NUJJkoM4LNsQMDwtqZOB-41" value="" style="line;strokeWidth=2;direction=south;html=1;" vertex="1" parent="1">
          <mxGeometry x="940" y="2746" width="10" height="774" as="geometry" />
        </mxCell>
        <mxCell id="NUJJkoM4LNsQMDwtqZOB-42" value="" style="line;strokeWidth=2;direction=south;html=1;" vertex="1" parent="1">
          <mxGeometry x="-583" y="2753" width="10" height="770" as="geometry" />
        </mxCell>
        <mxCell id="NUJJkoM4LNsQMDwtqZOB-43" value="" style="line;strokeWidth=2;html=1;" vertex="1" parent="1">
          <mxGeometry x="-583" y="2710" width="1530" height="90" as="geometry" />
        </mxCell>
        <mxCell id="NUJJkoM4LNsQMDwtqZOB-44" value="" style="rounded=0;whiteSpace=wrap;html=1;strokeWidth=2;" vertex="1" parent="1">
          <mxGeometry x="-660" y="2750" width="1610" height="780" as="geometry" />
        </mxCell>
        <mxCell id="NUJJkoM4LNsQMDwtqZOB-45" value="" style="verticalLabelPosition=bottom;html=1;verticalAlign=top;align=center;strokeColor=none;shape=mxgraph.azure.user;fontSize=13;fillColor=#000000;" vertex="1" parent="1">
          <mxGeometry x="-355.5" y="3338" width="131" height="120" as="geometry" />
        </mxCell>
        <mxCell id="NUJJkoM4LNsQMDwtqZOB-46" value="" style="shape=flexArrow;endArrow=classic;html=1;fontSize=13;fillColor=#ffcd28;strokeColor=#d79b00;gradientColor=#ffa500;" edge="1" parent="1">
          <mxGeometry width="50" height="50" relative="1" as="geometry">
            <mxPoint x="-292" y="3300" as="sourcePoint" />
            <mxPoint x="-292.5" y="3079" as="targetPoint" />
          </mxGeometry>
        </mxCell>
        <mxCell id="NUJJkoM4LNsQMDwtqZOB-47" value="" style="shape=flexArrow;endArrow=classic;html=1;fontSize=13;fillColor=#d5e8d4;strokeColor=#82b366;gradientColor=#97d077;" edge="1" parent="1">
          <mxGeometry width="50" height="50" relative="1" as="geometry">
            <mxPoint x="-232" y="3090" as="sourcePoint" />
            <mxPoint x="-232.5" y="3317" as="targetPoint" />
          </mxGeometry>
        </mxCell>
        <mxCell id="NUJJkoM4LNsQMDwtqZOB-48" value="&lt;span style=&quot;font-size: 23px&quot;&gt;&lt;font style=&quot;font-size: 23px&quot;&gt;User inputs in the textbox&lt;br&gt;about &quot;what is he feeling?&quot;&lt;br&gt;in web-app &quot;&lt;b&gt;TakeYourCare&lt;/b&gt;&quot;&lt;br&gt;&lt;/font&gt;&lt;/span&gt;" style="text;html=1;align=center;verticalAlign=middle;resizable=0;points=[];autosize=1;strokeColor=none;" vertex="1" parent="1">
          <mxGeometry x="-612.5" y="3135" width="310" height="100" as="geometry" />
        </mxCell>
        <mxCell id="NUJJkoM4LNsQMDwtqZOB-49" value="&lt;font style=&quot;font-size: 23px&quot;&gt;User&lt;/font&gt;" style="text;html=1;align=center;verticalAlign=middle;resizable=0;points=[];autosize=1;strokeColor=none;fontSize=13;fontStyle=1" vertex="1" parent="1">
          <mxGeometry x="-327" y="3470" width="70" height="20" as="geometry" />
        </mxCell>
        <mxCell id="NUJJkoM4LNsQMDwtqZOB-50" value="&lt;div&gt;&lt;span style=&quot;font-size: 23px; background-color: transparent; color: light-dark(rgb(0, 0, 0), rgb(255, 255, 255));&quot;&gt;User gets results&amp;nbsp;&lt;/span&gt;&lt;span style=&quot;background-color: transparent; color: light-dark(rgb(0, 0, 0), rgb(255, 255, 255)); font-size: 23px;&quot;&gt;as:&lt;/span&gt;&lt;/div&gt;&lt;div&gt;&lt;span style=&quot;font-size: 23px; background-color: transparent; color: light-dark(rgb(0, 0, 0), rgb(255, 255, 255));&quot;&gt;1. mental health&lt;/span&gt;&lt;/div&gt;&lt;div&gt;&lt;span style=&quot;font-size: 23px;&quot;&gt;issue, &amp;amp;&lt;/span&gt;&lt;/div&gt;&lt;div&gt;&lt;span style=&quot;font-size: 23px;&quot;&gt;2.&amp;nbsp;&lt;/span&gt;&lt;span style=&quot;background-color: transparent; color: light-dark(rgb(0, 0, 0), rgb(255, 255, 255)); font-size: 23px;&quot;&gt;consultation&lt;/span&gt;&lt;/div&gt;&lt;div&gt;&lt;div&gt;&lt;span style=&quot;font-size: 23px; background-color: transparent; color: light-dark(rgb(0, 0, 0), rgb(255, 255, 255));&quot;&gt;recommendations&lt;/span&gt;&lt;/div&gt;&lt;/div&gt;" style="text;html=1;align=center;verticalAlign=middle;resizable=0;points=[];autosize=1;strokeColor=none;fontSize=13;" vertex="1" parent="1">
          <mxGeometry x="-232.5" y="3230" width="230" height="150" as="geometry" />
        </mxCell>
        <mxCell id="NUJJkoM4LNsQMDwtqZOB-51" value="" style="shape=flexArrow;endArrow=classic;html=1;fontSize=13;fillColor=#ffcd28;strokeColor=#d79b00;gradientColor=#ffa500;" edge="1" parent="1">
          <mxGeometry width="50" height="50" relative="1" as="geometry">
            <mxPoint x="-113" y="2961" as="sourcePoint" />
            <mxPoint x="128" y="2961" as="targetPoint" />
          </mxGeometry>
        </mxCell>
        <mxCell id="NUJJkoM4LNsQMDwtqZOB-52" value="" style="shape=flexArrow;endArrow=classic;html=1;fontSize=13;fillColor=#d5e8d4;strokeColor=#82b366;gradientColor=#97d077;" edge="1" parent="1">
          <mxGeometry width="50" height="50" relative="1" as="geometry">
            <mxPoint x="128" y="3024" as="sourcePoint" />
            <mxPoint x="-113" y="3024" as="targetPoint" />
          </mxGeometry>
        </mxCell>
        <mxCell id="NUJJkoM4LNsQMDwtqZOB-53" value="" style="shape=image;imageAspect=0;aspect=fixed;verticalLabelPosition=bottom;verticalAlign=top;image=data:image/png,iVBORw0KGgoAAAANSUhEUgAAAOoAAAEsCAYAAADNUi9TAAAAAXNSR0IArs4c6QAAAARnQU1BAACxjwv8YQUAAAAJcEhZcwAADsMAAA7DAcdvqGQAAEUySURBVHhe7d0HuG3dVRZgrGBABAQUpClKMSAl9C4kBEI39FADBAiEQAJIJzTpJbQEQiihSVDpVamhBZCOUlSKUlSkiAXbo+P9/3/EyWSutvdae59z7/ie53vuPbusvc7Za6w55ijfeKYL4lWDTw7+l+D/bf79V8EPDD5/sFAoXAnPFvySIKPEpwZfI/iiwdcN/pOgx38r+HbBQqFwBXxhMI30EzwwwBcEPf/fg4y4UChcEC8X/K9BRvi9wT8XHOG5g78c9LpvCE69rlAoHIC/F8zV9J08MIMvDnrd7wRfwAOFQuEyeEiQ8VlV3zz4YcGvCX5e8OOCjww+Ivj3g/8mmEb9ksFCoXAhPF/wt4P2nvaq/yuYxjhFK+oLBQuFwgXxKUEG+LTgL9z3/zl+d/CZg4VC4YL4a8EMFEnB9IbZ8yOChULhCnj94P8Ojgyz5e8HXzxYKBSuhLcOtgGjEf9d8M8EC4XCFfHCwW8JjowUBZ6eNVgoFK6MZw/+cHBkqKLC7xAsFAo3AIofRoaKvxl8m+D9goVC4Yp4WHBkpC2lcr45qGj/6+77l9v8U8GfbfgjwY8NytkWCoWd8CzB7wr2hrmmGGKO/zRY+9tCYSd8RrA1MFVL3xr8D81jyf8T/LHgtwV/KPifg/1rkn8UfNlgoVA4A1a7bGdryVAVQvQrKqN8UDDxV4NtX2vP/xZ8QLBQKJyI+we5piMDm+LvBT81aP/5lcGnBxn16LX4q0FVUIVC4QS8ffDfBkfGtScZc6FQ2IjnCGpnGxnVEfye4F8OFgqFlXjOoADQyKCO5I8GXytYKBQW8GeDXxscGdIp/MPgKCI8RdHffxR8aNAN408FC4VCB+oMjGVkRKfwG4OCRO8a/NLgLwVHrxvxN4JW9n8QfPfg6wVfLFiaTIW7HlYxOc+R4ZxC0i0t/krwdYKPD24xWvyfQYX/Pxf8jqCIshY89ceFwl2HlwgutbStJWNk/CMw2vcL/mJw9N61/PGgFbdQuOvwacGRUZxCvaxz0D6numlNc/ocCa4VCncVSIUqARwZxBJ10NBY+pX7fv4Xwb8UHOF9gtrmyI3OlRiuIUN/tWChcNfglYP/IzgyiJ6/G/z+IL0kYy5S11cQ6ZuCXkPFcIS3DPbHO4cfHCwU7hrQ9J1bUUWGlRUyjDcKvkzQIClRWYb6XEFQxKCYwXs+0gMdnjdIwqU//ql8QlCxxp8OFgp3POz3RoaAosJvFqTm8FVBAaP/FGS8pryp8xWdFZD6Z8FUMcTPCfbBpSnFCOQ+CzatbaNTT8z11uf6ScFyhQt3LOwnNXWPDAE1hTOuU/ewPx2krk99/7PvewwZ+s8Hvzz4LsFXCr5g8HmCXxRsj7GWDFcBRQ2vKtxx+PTg6KI/ggJABlB9UFB+dUq8++uDo/evJYO1wk4FtQqFWwPqDUYrji70PcmdNWf1UcG/GRxJjHKP5XPhPYOj45xC7XZ/N1go3DqYFq621so2urjP4R8EFdvTTfrwoGbyNdPJ3TReO6jq6NWDaoZHxz+FVtdPDE4VYhQKNwKmhZvCRrGBARnvP7qgT6FAkj2ooJEJ5KLAI9h7fmbwwff8NIbIMekXioZvFRx93jl0nhQV/2KwULgxcEGqOGJMowv3FBrJaMXUu/pewVcImub2UkHKENI2fyfYr17vHfR+RQ5zxvqdQSu9NA/DPjWANUe1w1ZYOV1yMDXkqnA1PFtQmd7oQt1KlUZfEZRDpQAhQsut/bLgPw9KyyiCYMRoJg2plR8IfkjwbwTfJJhG92vBqeHHivq9xupnPqvjtudyBHkYijdqjk7h4hDxHF2Uaygy+y+DOl7eOUhgm2Fymxng6D1zVOAgLdP2qSpU6KEXte/kWaoHtid23H8fdMP4iaBVmbDa5wY/Ovj+wccMKPL8oUFuu0L//xj8h0FppFKfKBwOCoBbmrd7Miyu6scE1fBaJUev20pta/l/OVT75hbc6PY1PSkXKob4hqCU0icHVUt9VNAe+BwX9rmDrVaUog03Fz2xNQircAhyxP8SrUKKGfoqIEY0pyC4F62WVjRR4ZcLWg3zOU3kXGfutdVP2aKum3bvq8HceZp6/r4e6KBc0T5Uw4Go8hJGmlHqn53XY4Oa7AuF3fDGwf6CSzJOCoDGVFjRrJhL7uXRtEfkenJ7udgK/e1r55Qd7MHbHlorcVuNpMFcWaPnlDwy2iX47DzeiLyUpwRL56mwC6Q5+uZstbkMVJeMwM6Tg1ai9jWXpDyp6K4aY/2rXNctEPjp3fuUIPXcTwZ18mirmwpc9VB62B5vjubqvGGwUDgL0iXypkrxzI5hmJ8SlFo5IuWxhiqURHUfHqT2cA64yr17zlUGA6o+/t7/rsaLBHkb7fGWyBNxc8iKqkJhM/5C0N7MqiKCOxekOYr2vj8TFOHlimpHS1hB5TDtpxUh6MxRMMF9FQxbQv5+Cvp/8D7mrFY50q1F+SLco99hDQXbrNyFwmr8+aBaWQYyuqiOpnSJvaYcqL1mG8R5laBIqnObi0oztEtCbnjrjcxqym1/x6CboZ+pLhYKi2AIgkOjC+tICuoIslhV7A9pBbdwXtxSr5X6kd+0esrR0hRmtKbAPTHIaC5ZkytHrKe2/52WaPvAjU8vwd5fkYYVvv/9C4VnQFJ/z0L2OdprfndQekQEdMpVVTQg4ELmk9wnwxwVEihBFMW9JORGFTzkSiolpbSQsZlW1//OU3Tj0RUkQi2yrIn9s4KFwh+DC84UtdFFdC5dvKp1uKqUHT4waK+5NorKME0hv0mw2qk1Vr2Uv6cqJsoQVkf10RoL3iCokEKb3JoV9/uCoAjDz2RqCoVnYM+mb/ssaR37SAX3mc8c6RH9raCuHLAP/YCgUrx3C6brSqlhTWDoaPz1oIIJhRNW9vZ3ZqRzUNbIrVWKOCchgyq5pG3837/lAhfuAZerv1jO4U8F19S4ynv+6+Bb3PPTvXnZ9jhkXa7drC099R5BIzLsgUcpKY/nzWYNtN+JJuvqkeaa03UShW6j3IW7FOpiTwmCKHLQDWN16CuS7HFFXJcava1QbTmdC1I+sT2WoMqlYOWS7nFz0IzADVXg0Z7PiPKtp0J6yEorwq70UP2xm8JXB1V81ZDmwj2upiKG0cXXU/8nZUCum2bsvx3kzol2jl6POmSsGooARvD52tfsWwWU0rDlQ+1jtcGpyz0CGbSxp3xkkJtuvzmX7pmiFFKhcBi0YY0uvJZWTHsye8zRXknEc/S+pD7TqRI5aZT2tWppXz64FxijFYnXoG7ZnBkrvRY0pYGMcm3TAK/DDUVU3HkLkOVzbxssFA7DXEO4faaCe4UPc3Dxj96PVqgpaAcTBdZy1r5Hi9gaY+Wiah2zv6Y+oTvmSUEia/61+utWkQI6ZeSFfaPGdWkSEedXDEKW+THYfK3IbqFwCLiZU8X0anvbYJAVkQtrJbGPsp/K561YU9pJuk50kowKD7i98p5cT/W00jf5PhVJAi49HIc7bEVsez7PpSooNw2RW664EkI3AXXAfZBIlFoqC3kL3i/YVCgcAqp+/QWLRMESjMnslzbSqd6X3IhAUEIwJC/aEbmZUjRzsOdtNXhFgBOMw954TzE1q62bjsomxuh33Qr7asequTWFwyCi2F+8xjm0F6yVrn2e0T5rcATynJqi9YOO0g1W6TWwl3SzoNtrxZXfzX7QPehmoIh/6vfYgtzjtze3QmFXPC7YX8QqgBKMpBUE45quUYsnY6IckFKC4It0g31sDn9aA2WARlcQL2vPbwt5AaNSSDeSzNueCzlWx7xkCqlwl6E3VPs08pyJdw22z9vPCgAdCftmk9sEgNrPPoUKKRQV2G9qPRO9biO1ivvtQc+B/bljCcoVCoegr0biXrai1yKn7fNoTzYH6RDGbkiTYIzAD9dVrtbe1go7kkWxMrlx/Hqw/8xT6bNacHW507pquPAqfpzbOYJjIs8+y4xXOeVCYXf0wSSuohEQiW8Pts+jFcmFPgXG8LRgu3K1tD9MPF+QC6o97VTNXVVDRNXcZOQ55UR5BiqKppT2W4xuGluQhiqQtpTGKhROgmohecL2wrfKJuQh2+eSjEGUc2rgbxaTjyitkrq+1AFHr0lqG1tqwhYF1oUjAq3LxMwZOdhzDXAEqSEVTBoEElx150ES9OhtQeEuhl7Q9sKXv8zqIzq37XM9rbiMpDUKxn+KsPaIejHXlDdyry8BHS0+TzonoU7ZY3K6a1v2CoXNGNXp0q+F3kjo0lo5uJbt47o/GJWKIA3T7XPn0Gctzbr5nuAlVjICapki0rwOXN0HBj3GM5EHLhQOgVSKoEp78Ssd9LgZMfmYMj9unwJ5HTPt669Bedq+eupItBFw+WeehMfc1DzmJrZnjXKh8CcwEtmWIiG4lT9rY7PCapYe9WPuzb5tLmlVk7NcqnLaG9l6J0Ulqi03LM+ryd3j9tJb1QoLhU1QidSX/6Wbewmj7GlvrABeq5sSP4p8pEzeLHhUy9scBJHSi5CGIbFCC0kh/ucH87xLRLtwOLSx5QV3Tap+uml7PWqIblzOT8/qywadp3/bffxe1U6FwiREa48eS6E7ReqGlpIo6Sg98/PBuSne3HSaRZdEBozQPl16SZWTeuG246eEswsXQQ7+PYoubg3W+jkVRpBdUSlE9oQLqS5X0YKqpikIHq0Z0rQnrJT5OxBdc8MR4e6b7u1XC4XDQWisvfCOov2e2TVG/7dIecw1XTZqbOdW3j3xpsE8dzcTgSOrqUYD7Xv5HKnVQuFwWKkUsueFdwrNTlFCKCA0ak2jtGDSmdcQqKaLlPiiYB6jN+IeCg3cWHrIbe5dmcQo29/B76auFwW3CGd7XOF/oXARmNTWXpRbKKVCkDpLC+Ua+9eozVVjDHK12tlU9HAp2wiz9MdckbvnrMq9ODX9JoYux7kXnGPmmpVP9q45D8BzT73np0LhAnhoMI1lKxla211Dx2j0OpVN5stoSldU0Q4RbilwNAfPi7q2fa7KCb13b6OxlxbxHUV29d36zJum5F+4g6GjZetsz57qh9vOG90tVmp52fZ1LZXg9Z+rx3NOIV4TO/daCWObwzRCUXH+pUA61fkaTlUoXAyjadmUFk4ttmdwXOJvbB7ryZiVLraPaX2ba1XjYufcF243YbItavV7wU3BOfAMCoWL4f2CrcEgg5iTFu2pQMBxlPv5mSEttaz1lGvV7zkFe0c6wO176PSu6UNdAv2ntVVQrxn02YJK3lcoXAQirgIyLj4r6SmusPfTX+rHU6yl4gur8By4xXKXKaDtRiC/ucfYRQOpCLWtSQHRh/L5bhLV6la4GERUs11NFVGmHy5FNwbVP2vxOkHqid7LvR5pCJ8CLu0aQTaGKpAmSFatboWLQoSzN6AjKJ8qpSJloyvlpYNLLiexskcHRX3bFUz0VVmigU2naPT2sAfWh7oEXTNce6131UFTuCguUaVEC3dtYYLCeKkf0V2aTSRduOXGMtJcIqQGDJTRm5B2LhzrQ4NLqyqhcCsqPsQDhcKloPJnzbjBlvaVcqMKEUhxTvWUIq2jLQLYigzyvfKV6mwZknEYcqYez1k5e0KhvUHMc3jHYJ5bK9NSKBwOgZrc960lFQhjJzIAo/RON8zotUvFAfbJfWBGkUS+3+plfqgJc2A/SR5UpJg7bd+4B4iQqzyaCyq1w6JacbhC4SLQtJ0X4BYSz6YQQY+pT58wXNVIS/rA9ofKCAWHXsUDAYp/fWucVZ+hJOxvDWzSX7uXfKcA0VwkmYZSno+ZPIXCRTE1oDhTN1tJ61f97xKyxlf7W86wIZjNUK3So2FUAkhHTuaey48a95jn4eZWKFwU+kZ7IW0tavcPjsS55TFN3jYmwlh97mn7vHznmqiovadgloAQFzYngNvXajkTgCKDYlUmtJ3Hp8SfM0z3hOYBEelR4MtzZtnkOcgbFwoXhWCP+tW8CNMYwJjF9nG0+rWTt+0Z+9e0bW09WkFv81cJqUmP2Ie2MqRuAgnGIxLss9QL0zJqx0HuBWMvRt08pEqlsrKxgGj5XH1yoXAIuJxpIEkavgxIMUT/HH5b0Mo6apmzIlN2GEE10BOCuepyKRVbqDYSWW1vGl8c7GGGKne9VbI/Gmm89qbOi/rDHpVRhcImZAtXTxdkX7Ekr6m2d0l7SfQ23UirZVvgkIUWVl6dPNkIoPNGoYNAEdkWAZx2Bb426Dg5T908l9IaLhSeAWoJUwOfejJQOVQyn0udNv84mOMVGTwDVwoIWchPCE1XTb5H8/ZNRWoj26dnyqhQuBjuF9w6q1R72tZiiSR32QrbRlKTbhipriDQpJl7TgjtksgVVQBNtLpQuDiU6/VGs4WCTHNVSiKlRLbzZ43gKqPakRpotdJSpqiCSr2gkT3vOaMk5FrtifuSQ271VBmimxdjbINGgmh5njyKQuHiyLENPXW59AOjRuTajlZYxttOYrMHzRwtt1fAqg0gSc8QYGMkivdBUMkEujSqUWR2DtIr1AMFolpQ5ldsMRpy7LxUK6laEkSy31YTnOcpkFYoXByK3LPwoKVm8rZ8bitHF3TbtO5zGYNSQYqFcqc9lPYxXIbq/0s6Sz2snIJTr3DPT/eC8fo855A3hBbyy1Z7q7scqlVZSWSe9xODhcLFYRXL4JBVMKO6/rWfVBWUF+la2oNOQYrGa0SHt4ChkmOR2+Q696vkFHTjeH2CnEs2y7d54YQiDNKmOmVIh3p961kofSwUrgK5URehYAm38En3/WxwkxksW2RWFDJMNXerepKa8TodOCPXcwpWx6cFddY8PChVsmaF9RltqqeNdNufG62ofDHB9RU88hla9VRDcX2zi8ce2z62ULg4uKlpaFZDgRTRYDpKsHZV1d1izs0IpFdEjPO1Jqe1hspYdNRwTbmdI4gaS+PIwapUMiJD2eEW6G3tyx+p+Pcg1dIGjvStmkVjPz71OxYKh0KOMy9atbcuSntDwR/urz3eaB/bk+ssSDOK1H5usH2tOl7BITcFfZ72g/atLxVkjKNVWemh9zo+5Qj/Z7BbBku5YbTngdzxHgxaiijBOE0CYORH1BwXCouw72t1eU01A4ULH3Pvf+/R820v7jna3zKqFu2sUbSigs/yMyMXyLGfNHqjDfRYZQWeFM9zW63w0je51/Sv+uQ1oL7f33QMde6RbXRWeTeuPE/kLhcKV0GbT6WmIC1hdWOsIL2Sz6+ltrAsJ6SD1D4nUANqi/3M1ebS2k9Scmjb2qjy/3qQ8Vptvd7qm/NsUEPBmoJ9+2SrcL4PlS6OINpsSt33Btve27x5FQoXB/WC9uLNMYOKD5TNqXFlLO1r1lA6g4vLiNp8qxsD5GiMvDmMoHTRa5xjDmVm6FzmttjCqr9UNK/3VC1zvgdNbhuB+5uvkdLh+vq/lFKhcBVYaVJDF6ktGCvBFc0cZ1thNMXfDP5EsD2W1Q90yuRjoqggaONnRtaDgRthIfrMML3WTSMLJxQm5Fj/JBd7CdI87XuMV8xa5BaPC3pefbIbQK7gjLba3QpXgQgsN6+9gKUlwHCp/Ld9fkQGZ7XMcfuY0VOGn+P2jdaAPOZoldI87rnfC5rgxhXlGusL9bj9au/G4ig/2kJZYR/5ZYQ9pK3s3VOoLYNZor9toKlQuCjsvdqLl6vLuBjTqwcVR0iJtK+Zo3SMnGwrdSJwxdW0goMIrtdatVqkUSQ1jWfLXKsMOKIbzlK5odWyNdbe/bViuukYEpVT0HkW3oPt4KpC4aKg9tcXN7x30EVrdTXGQq60fX6Oms+9h7G3sF+VK2WsOmRc+ORfgIGJwo6O901BEWAR2XYaeEvGxVVegyz08DsLnLWwJ5dSkorxNwA3Cqu793DDC4WrgJ5RbwDExrjFXD1u4JYqpSQpkxw+zBBzIJWL3krp/wJNNHaXunkEliCFsfPxTNVsGXL8wKBUzahAnxcg5eOGkq1tblhZJ7y1BLJQ2BVKCPPiR1HVVBdsc4lzVBurM8Z+tNUP1sIGVrw1BRRTFGCCjAZbucl+PiIoirwl0MMYlQ1OoTdg3Tg+kzSq1b1QuApIdvb7UOJiMFpxRyTbIrXh9faaeTwrYJb8yV1aUTPoZF/5Off9vyfxb6typmJUMUnlCCy9W7CthHL8PaVFe0PlyjsHUe3cZxcKF4fVKCOzSYaWEiR9vnWKUihSPK17ilbaXIkU1Suu97iCe0EiRulnRpzF81ZfLnimfBhsv6ds0RbhnwM3AyuuaHOWNIoYp/s/VShRKFwEgicuxJY0kOD5gxlQOZXpusLrBq3AHre6pkss4uw8tJX1+2LpEedxNNy0lBDaV+v60TXTtgWKaBcKVwNpz1zpkgoLckaLHGj73FYqOGhhuLLJbf3r5FatjupzzVQVaFLQMNVdcyQUV5g6BykMrrBjyzCsQmF3uDB7w9GEDfaF/XNbSL6l746R+ugLLlCtsb3utcHVTpc900dW/1GnUKFwMcip9pFZEVzuoGAN97N9bitz5mkL4tq6avrX5qiNm4K2LdDoxkLharAvG61wKnXA3rF/bgulUVpwZ62ePjP3pPbCqqUInOmTXVvIcDRUV6XMKqG2QuGqGOVN7SUZsYBQ/9wWCiCReQHVP4r587mMFIvyMmDFBwxVJNlYi5uAbFCwl1/TXlcoHAaR1TQgxpOr6IcEoZ+PupXaxjSBtxItPbPBPIsbFOFfI5jUI/OpqFe3ULgq2iIEJX45P4bagp/zua1UM6xXlbvbDzDuqR5YIUP+/PTgtQNMFCeycydb9gqFq8E81Kweohwoj0gsW9meiGc7P3QL21mjIsBa4dp5qC2VNZJp+cPmsTVDk49Gir6Rnjly0HKhsApfF3RBCvIY5a/Fy89EutXvrlHU70llIfOyCV0x5EB7d/jjg6qE2pWX8baQz7TyXrL+thUUl7IqFK6KnGaGuRLmakKIrA0EbWGKqI1AWUKE2VgMBRiQekn46R5oIOCkPNHecQqCV3sGfhRqpPurA0eQrVC4Gqx09oUuSBcmETJCY6espC21pnGt1yIDSmjcRg8q93M1wHLD0kJTw5a3QtVUzs/hlpfqQ+HqsLKlkaTb2aoAnspPCq6FMRP5PjItp0AFVN/IvhVuLhnMaoNtcx5CoXARCPiQ5HRBCibZE75YsBUxO4WGGbvAFb8vwf5T8YP3OZd+j9tCj+kRdbg+UwN9NrBzz/N3Mc5jr86dQuFktCMac6RiqjVsJbe5DRjpN318kDbTXOM31f4UCydl2qI1Ei6ukkcrtqbyBOEzEeRTIajl5iIS7uZlWFW25inIyCKOQuFqENRRUO+iTMlM0idpbFsoGNTKhyb1mpIGfYvg1Opk9VW65/W0nIy08K/Hsoa4lXRRiqhNDextGfqaFXwKOZFO9Jvhtp0/ItSFwtXRSrUQwBaYUd6Xj62lQNLS+74nOFXf66bBBe/fYwIbpIvckpG6ufhc6venusZ6aB0vZUkZbEZ/RcH7zqBC4eJQ8JD5TLlQq57RFWkMR9Ag4VGBQy9whgzlfYOjKeiUKuxds4ZZv2tOM98CUXBqh62Q2mcG83NK+aFwI0DtIS9KKgxyk23V0FFUbqjgooUxkaPXTpGeL9X7VD90EzglCmwvmvI0bhhGcuRnaCgv4bPC1SGPmvq+ih24v2aM5oV6JAVsrIQ5ZkPudPS6Kcp7QqrwI8WJXsRsLdrjtMxgW6FwVbSrKglN7uC53TRbKarbypGuoWitogjFCTnDBvsI8hpwx9tjt6TWWDIthatDMCdXVXs/OVVBlrV6vV8R/JrusaPILRVlzoFS0kDQGrmWu62yKjmJbor2yoXC1eFCzIuSxChIT7QX6xQpOSiil6LpA0JLlMccRXynaKgUd10gzHvlPfXU9uMXU794LdyYSLFIBY1+ByoQ1CAKhatCIbwLPy/MjHZmjnOJ9rfc5l7xcIluEFIglCEYis9LCc8pkh/V/zrSZEp6zamGZZDWKKBmUHOhcHW0NcByo/oyBZeMfGgv2DmunWcj6qtwQdsdYewWChgYi9pb5YWqnrau1M4/J8ZtgZSPKK/ob2+sVm/VVoXCVaEyR0N5XphfGwT7vUyBrKW9JGPsDTd/zolvXFh9q1QLR5Db/aDg2htAUqrmlFpdKaKc0N7P7kF/n1PytYXCrpAqaYNIKUBmhUl1iDVUnsiVJZxmhEU+Tv5FGoYxtLNWe1jVHhzU1bMk79LTSMdTVlNQ8pgdRXKyXGh7dmmkPP5HBAuFq8Iq1Krn2y/SFIJHB/PxtbRykglVZeRnK3M7BmMETdsiyf2xRhThtfK7AXxwUFDolJU0QT9KcX5CbpXyhU6b/B1Exu2pC4WrwsWaU9uwFfx6cjAfR4X3Wdw/RSt0m+e03yR9Mgd1vu0xpujYCuvn2uTOgXmqBl6BhoH0KngJR31mobAanxhsDSJ1hERS2+ASo1MUb6L31n7WKWV6bq+SPjNq1hZeSNuYLL43HLMNIKkJTmMV7CoUrgoG2aZJpF2yHtbcmnwcGevXB0fBoxG1qkmvvFpwBCqG0j1yo1tyrEoK6TPtCW54n+YR/MoCkey6KRSuBgbTGoIcp/2fFU+xevscMuw1qyp32arMlRxBJJghj967ROkcE+OOhpSS31Ua6Jzm9ULhbDDKbwu2hpBCZCKf7eOnUqBpqohepPkUrWErtqiyzpojkdsDKZujP6tQmAUZzVahUFM11UKpldQIPoUavlO3iVypQoMRfI5ywP79a8h1NlaRwoQo7TnG5PzcnNp9sIoq4uU+S5CtULgqpCdaA1C6l1pI6mzXFu+3NOrx3YOqoWgs/VzwAcERcojTuVS4f2plkRuG9AxdqbY/1R41j58SMYXCVWAloqvUXvSMN6EueGvlENrfSX3YkzLaKcFtuVGvHR1jK6lFKE88BRrrHaNV0rc9yHpoKajsrS0UroIHBltjVPf6GsEEhcB8biuldxjjHOQzrbyj92+lGt6lzxtBieV7Bg0/bkEhIvPOosG2BoXC1dAXIfxoMBuq7xccRYK3kACaVdWxRiAVmvvacyntM7UvPgWCYnlsxRBTtcuFwuEQPOldYMEaKw20+7VzKB+qsGBU/N7OzknaN+ojFe3Nx6xsSzeOfubNFtijt5VJ/p8jMVBeud3LFgoXxYOCrQssl6hgXRG8NIugUD53LgWt+pzoWwb716lKUujgRqLaSdDIeeSw5imKPGcd81ZoAexrls3DafPI59wICoWz4QJsL3hpkHQj16pCrKXUkFU7h0EJOo1eZwVtJT9pCLeN5SLTCi3a92DW8W4FQx1JifZC5BoZCoWrwMrVtq4xphzxL9DyR8H2Yt2DVkj7V1FWRjgVBRaYIqKdUO6X+9ovCPYawbSSTgHX9/mD3P5WolSEvB0pqS741ChzoXA21Om2HTF6Nrm+AkF7ur896TPZp75DcGqWazYKKIF0TgxJAb0qp14p4mHBc6AO+GnBt77np3sh6NVK0rip9BrGhcLFQJazvegZD5yrtk96RbWSnlT7zZFSvkCRogn/n8vhUit8bJBBkRXl6mpGV1X1qCBp1HPgRiDAZr/7Ih64D6qh2kIQq/oLBguFi8NFTk0hL0YtaVw/q0c+dgqtei5+tbT2eBm9nXKpGeMjgk8JTg1ktofl5t4/uDfyhkV+xt418Zhgew68jjlVi0LhMIia/lowL0aBH5CeaC/SLWSo3xnsDVPeVkUUDeG2sV2klUIgZQaU05xqj1OoYTV90+C5q2lCIC2b5yn1t/iwYPv5Xx7M8stC4aIQ3MmIqn2rKd56V1sD3sp23mpLqRiubJ/PRcbyjUElfiLAbcBrRHlP6RwC5OfCZzqm4FGvqtgbq8hwoXAVtIX72r5AKd3Tg+1Fupb2nVZOKg+O/YVB4xfblXSJa8XYrL48gWyMPwUazO19He9JHuhg5mv7mW2tdKFwMUhTWM3yQsz5L0oM7R8p+7XPL9FA4R5SM9rMrODG+bdT13qK8Oql7d1nqoICVeRErcptbvV3gvSXaEadApVU9KXsk5/LAx1Enttz8XcpFC4O1UnZn2nl61MS9oRc1/ZinaLVkOTLHKRdpGpUIFEjbN9vJeeCi8QqwkjpFCoU7xWkVfwsQWMmNcO3Am32vHKupwSeGKum9ZF+k+ekjfJzeA1lrIWrQBld1tzaI/YriwbutQUR9qlUHtaAUeptpduU6RzGqeQQBL1EffOzpXaMl8yKKv+KMhtqnDrCXivV9OLBPSA9IyCWvx8KnJVOcOEqaMv8RsoH9pvtxTpHUdqPDb5ecO2QYkbZrlwUEhNqh9vJb1xfBf1WNh6AFZbRukF43GtoEVuVDac6B0ZEjsoYUYDJPrdQuCja/ZiG6xYKD+wH2wt1iVxh+1Zua1tYMIKgUL8fljZpC/wZndW2TSO5KTBK7rv9azs0Cyk8+PxzumL6OmlVS6n26Bwrz1q4KFxwmR6x5zMouIUUS3vBbqGAkECRlVLQyh5TCsRKbSRFViz1ZOx6Xol/a/aWlrGv9tjo9VP8vmCfglkLe9e2pzYb0fNnLXtt0UShcDjsG7N4nnERSksI5NhP5gV6LdrPnqr5dGrnDTc+J8Vx0XuROFKqNTWucFG4mPMC5E629a5WXdFVLmd7oS7Rhcwt7Qvse3p+VAdsKLHAkrk4S8dYYg6U2gor6eh4SQE5e/1C4WJoezTlN/tJa4IscqNym+3FOkV7Os3qo+qklvaaihD6KLPUEY0nc1jxccF+P7qFJGpOKUfsmxpGFHXWVlgoHA6FClm1g4rstYL1SDW/tZyKoCY9P9dZwzhNa+OK6lttR3hspU6flKTZAnv1dlV3DiRYf7l57CeDxN0KhcOhT7Ud56hsL5vNEzSX1pb97U2uZiujcgpPbUJ/q2D21ircEDFvm8+RF6AM0d6+UDgULjJR2bz4lNr1+7B2WtpNoQIItcDKFr8jaCWeOkf51lMg0NZKxyQZaFvfrFXuFYKFwqGQElG0316MBkK1+7CHB5fc2nOoa4bOU/8446Md3JcjSse0IAX6SkFGOZKEWZr9OgVKhvbLGRFGUel+4rrV3+o6JataKOwCeUIR1/bis29tp3gz1j1WVvu//jhGZChasDf9ymBKyog+EyzD1lgEo6gvtuCmy4eO9sBuMueMY/R3aBvyp6ibqNWHKhR2h9XASP/2wrNytDNTBVrmgkFryEjV8DquYoJ8/IuDWcNLatSqzlC5mQI5vXG7kbRVQ6LO7fM9rcrkWE6FckJypFzd0fGTcsACdRrmC4VDwFiVzbUXHtezvehUAFmdBKJODfbIm4rK9m1xDFOxwdsEpWneLti7mS21x2UemNEqB5wSWEt+cPCUaHBCxJwahRW2FZPr6TwMqWpFwQuFXSFI0150VAxfNNjjtYJLK8ypFNhybBVUo+eT6n01syveB6JpcsCCTXpRtdcpyHAsq7Zi/5Hi/ylQrSRn6xxG54by1Oe43TcNblRYuCEQgGmjm/ZfdHN7iBxLg5xbUXQuBXS0xAnqGDild9VqSyh8ajDzXtA6SJ6U/lKbb20pOn1bc6/+jhQiNUy4Dtz8pKwE8Ao3APZ0ZDfzYlPUPzV2/32D5+5f96QVmQoj3WHCbIJUJFkeH7QC4zlSL1NwMzPq8VODmguyFxj9fbTqaZK/DVDdxX23VWn/trYs8u4CfGv7kwsHw0XVipL5gqaCMups2y90isSw29V6RM9rVD/K+O2HlUoeCQEznTh9OaQLnBtu63BTIbCnI6o976SUlRiD/8sGFG4I5FrbKia0QnHl+prauRY1DeJKA812nXIRk3Kroqz2d/0dfQ9SOzwS9nHZemcvO9I3dhMSlPJ73qRJc24gvJH+fJNuclJkvIWlXuTChUH7lj5vW/ggZaJ5XEBF/pAig71Y+6W2FHThhk5p/LaU5nCxMO68yP1LLdD+ua2o2sprTHXTFO8CH50Pcic/KKiJ/5rgtv9+cHSOPW0jCjcUgiZUF0Zf3KlcW/XEUHXZvFiQ27r2gvI+msaqn6SbrGI6iEaR7CMh3TRnrKiy6quCthdrpW72gmj56JxGdNM9VwqncDA0oAvSjL7AU2g16Vvf5ih/q2Vu7f41i+flgxmB95Nw2UuZfwusrFOKFz3tbUXU7XOPjlxTj9TWqNBk6bsQP+gVQgo3FO72msxHX+SIjEpYf7QKqho6spaY9KjUTbrc2tSuOcZCkGlpakBLhuNmppZZ6iln0+4Fx/QdcL0Fh+YUNnxPjwwWbhnk1+YqdJIMtd1vHkk5XcXzVq6pcyMTasSjIVoJ+kntz0dC7vUzg5m+EQl2A1mTj9agT03SNoTC4zkFCLyjpaKSlso/C7cUXDPVP6Mvdo50fol1j547hy52qyf3XJKeFtSUYoTX0B+WY+VOizavXTF0GJ1b06udjgicCXhzkfApA2boGvwF2bijW1Zbn23PPjruiF8WLAnVWw5yLmbTjL7gli5ILrN/1cOuVeo/lVxt9cJt4cEaakCYg5SLoFQrearYQerJSocCQprx1xRWqP4x6JnUi3pnvbDa+fyfIa8xKC6r31Xk/SODihEod4xqm6k+zpU+9lQKWRI0dxC0pOW4ipYixQoYBHJcRDpkHhy02vVBIdVQcrRGaBy5d52jfWFrhC0YAFc1k/3ypQoARsbkd7NH1vMr0sz7WKMVbA+dASQNCqe2GHL/GZlZtaqMfL6bydbcdA7FPgpSe9XAcGFYXVXetO6aXlHBEC6mO79UiXEbwCDaQgnGbKyEMr81e7ajaEXrI8MCQVYtOkrczM8Obu0iEkjSNGC63hoY7KUkcU0s4ChqcFCl5iYjgu7v4v/ULXgPoui6ntwINPJvcZEVfIgp8FCOKOssLEDIv41uKh1UNPFGQf2jDNaKmvlMd20ucXuBXJtc0YwQOz8uNI+BYmEO4FpiuqL9Pl6agwH4O62JQj8gKF2zJWK8J+WArdCKXKzSPJ8+L8yDkAvWayyK7GY89btxpe2tW2/BNaLgn9FbZdWWC7yhYhCT/XgwCmxQbpp8kJuF6HUrf1vYAHddK2Nb3O9LJiDmTqoBnJtJZV/Kx51aJHlN9dKlKMDUzseZc0N5Blk15aKjOZUXqihz//qkoJYWvOcNLsHf1EVsIoE9LG9lLqWyhjyXI7wXfyvRbJ6UbZHtDG1pA8GWApBuZIxekE2Vmu2TlbdV+2jpbyCC7WZ2jRz5HQFBDfukds+p8fshQdPB9bwKLin45lJqYlcquHbVugalmhhmFggwGmV1LqSnBXsJVjW07e8vEu2ClWppH/M32FJK6O9lT//ooBV6zWR5XoGboxsJD4cMDqpOEtQyqtIFL0Cotc3rBebOvSGM6O91jjTsiDWR70yoJW0nu/mS7L+kCqjVu8BdFPR97XVELLlBc8X+16IiARdYrkQZWeb2jSKkAmjeY6WwGuZK+/nB9rjo76Il7jFBHobAW46kXIICfwZnJeuPixos/G3XQlDLPlnpphSQ78n3Qw1Eakj9dq/E4cbb63BN0e8pJdY+5ubHI7GSkmp1zZAKclMjdSNzYJX2s1hC3iyTbiqFM+FCsoq2+1FftC9fRFKHjelv9kIuYnW9VBk858tqq5sYsC/siA6bUyjCm0YqPdMGR6xYLqiUZHXxL2k9Ja1kVkpdS25cc3XKOaZyNLnATUXeWEeU1/nXPlCgSPGDlVyaaUsEljRNH/E2mtP+s31sitzbXkJHlNzNRmDSlogAn+i3n+1TeSdiBq4Z25LRSl/YCe7qVoy2pcqF7OLljgkWiI4qn7NKpfKg1dfjjJNrJhKb/ZFHkIFILY2e66lUUbXQE+77WWcRiI6me+cik4e1R2PY7UXOo/C8bUE+NqILW5RUcM6NzXsEVtzYltxIf2N7udz7CRAJCqF9oPiA2EEOzLJykueR3nGTsde0AvKEFKyMykJFqE9NKSWz9FOuXZzAtsBjPJLR63sWdoaInoug34+6UFwQ7vZylvZMIp8JezMXjYt6lLrgZi51qyzRhSvoZXX3M4OdqyBiBG2ZpIteWqp1DRlZRsDdrLLBwQ3J38LnZcCkDfCYYXvEHvFOpO+tcBBcpIIYfTTQntUKSl931GBtD8VtE5hp3T3RV3tBx+QyprFtoWi1Y2YQyOpj/9W/biuzWMKKm48RYBNw8395Zn2zcrSMWntfjsX09/msYL8vLP5/8rAKB8Mqw8XiBrZ/fKsmeRDh/ak0hv0hV5D7LLgjnC8XKpBjr0P0zB6NO8fg1rq0e9IqyZ2bcm/tuzUHWIm5j9xodbaM1p7M725qPI9h9P67nf5+R8vsFBqobrFPVevK4Novg0tpxZH8nuoeYZzC9PKMXEmGIcjS1r4KTsjpWrHtd9XYXsN4W4pyZsqGUWeJpQCN/KC0Svv6u522G7ZNqsQEtqpx4IoQoJEnlA7ogxTC81xcq+UIIsbytQIf9nmCH1ZmeVqG3rvTVmUrlla4do+4J+1TBUhGz01RGkNP7+i5u4G+CzdoASaurZa7dw4KLlad8A2E8LzaUvm7titGEEe5HuEyrxlVp8gFKiho0zmMRojfys3gpVG8Tu5Ssj9fV7wsbXV8L/bjDw0KKkodrSm3LNwwqP6hKSx9wwVqv2hurBSCVI+cYS9nYi8rQCNYU9HUy3LOUxHAE2STdivcgdDEbUVUFNGPX7RH5SLLBwomvUYwxcPsWY3CEFWmaaQ22R6RiyXi3B6nuI1unooXBPR8N/aQChnECpQq+j7aqjNxhCmR98IdCFUsCiQEnLhPfTAK3bmlbOxX1ejal2rTUk1kBSbNgjoyNIDL2UqTCDrJ8UqhKBxwbCtyTykd+2kpHXsrQSLpFy5734N7J1FBgqi2LYiA3tKsH1sUtcrqjisQdJfDnpMLLAosqGSlnGtK97z9qQCOoIWSR21UosRK/wSgBDDkfslmCmgoxjCPhcum8siqrdfWxapUrwXD1yrnJqEyiQfA4JOCXs5BlZHzsOpYbdS42ksLpsgTK8NsO5Naci8v1cOqsESg67HBdq5uoXAWdOe4oJTdyU0ySO13ayRbGJX9r9ym6iIrLSPOXO0psIJbySnPm0znhuBmsGaF8R43kjbvrNxOAIaA2lGRa38rN5oPC7op1WpYuAgUGXCZrYp6R83S4apauVQnqTPtA1Y9RZ69TurFCii3R1dYkYZ9mQta3a/idyknxQtTmr054pBryJCdm0S+XlTpJtVNItiKN5xjqybI3fb5a7SWeiqkYOiOqVPFPtIWQoBHcE7wjqtqS3COAmKhsDs0a1vllCra+5qJw81z4Rq3yDVVA8xI1/RtCm5xcZUB2ier89WWphgeqTigVd7j0kmOnTXA55CbypCJm7mhaHtjjNrXtCFy49c0sBcKtxYCJ1Y+Bm0fKsJpNWXUdJbIjNCTElAShVZRs7RfHtHr0Q3BPlQAR0WVOmD7VsEcrYJWRKuh/bDcs/OxqpvWZq9dKBQWkA3ZVmuurZ5L+2ZuJddb1Y0URlJaSfoog1VuBNxgLqiAllVQgAurKKBQKBQKhUKhUCgUCoVCoVAoFAqFQqFQKBQKhUKhUCgUCoVCoVAoFAqFQmFv6NfUVKzhugSq7lxoejdNHHuJmcINBt0go+9bhQFCXtq3CncOKGDoqW1n3lCRmFKoKNwg0OUZDV/SzEwEu3BnQI/sSIycSgWZ1sINBV2hrw/2X1ySoVI5KNxu2MJQPpzSijK4igZU4YaBogD1vSUZyjLU2w0GapQEbaXR95v0PRs1caNxt8gjkgkhR0mDZ630JJfIuInC7QGpU1sZs2TXTvUmlNYOl75RIPMoWEJEysXrziMCRsTqLYJk+2naWH0IMCdp3bxsMLVbp0jf1S/vGO37k47rOZ/j85I0dpwHIS3/0nQ1Kv5JQfqr5B+JXhG7WjP9SpCIGNcpA3Mpw9MAKtx8mNz+0UFi36Pvco7Evwml3Ug8Jjg66ZbU4fj1RhokjTEgJSk6SnlujmQhvb59f9Jxl+Qo5+jYxLDmQK+Vizt6/xr+UtDkrcLNhogtVcTRd7iGbsg39ns2U2N00reFvIEluMueIt6crBX1dsBsnVM8piRt4Bv7PbuIvzR41KiAo/nE4BLsvwkym4EyOsYSTfkuEeebD98zzV/q+KPvcYk32lATcktzKYqbSl/MWhiuZCSDFXJ0rClatUeDhAs3EwJ/ZsiIu4y+zyneCkNNGG9gavXoF5kjlXRTuQwp+oT7/h3RcyaKea2Rf18VVBEiAW30nxC66NvoM0Z8h+BWiPyacTk63oiGKFXFyu2DyO+WFfZWGSrIGW7Z0xnuanjuOTCA91mC/riSzu6IDHf0eUljEMwXORUfGxwdt6fJYqXWfnthvs7UOMeWt85QwRDcpUKApKE8R0BKxQSx0WeiaLHZI+dAmmd07JZlqLcfYhSj77blrTRUMGdz9Av1/OTgkZBDHX2u9JBc7jmQvx0du2UZ6u2HiLBU4ej7Td5aQ7VfHf1CPY9aUROGDxnf13+u0X0vGjwH8maG+fbHblmGevshl/4twdH3m7y1hmqvumYjfrShwoOD/Tg/Qa9zux3si40MbI/bswz1zoDKttH3m7y1hqqp1qo1+qVaXsJQ4ZuD7edKsyxVJa2B4bftcXuWod4ZMKh59P0mb62hiuRK9o9+qZaXMtQ3D7arqsnWewywVT/c/j49y1DvDKgbH32/yVtrqPcLGuU++qVaXspQFR0YMZ+f+wtBU7HPxVSwKlmGemfg/YKj7zd5aw2VXIVVa/RLtbyUoYK0kZHxvxVkYHvg8cHR75UsQ70z8Ojg6PtNlqHuDEUR9s97oQz17kAZavA2owz17kAZavA2owz17kAZavA2owz17kAZavA2owz17kAZavA2owz17kAZavA2owz17kAZavA2owz17kAZavA2owz17kAZanAv0Oh9RPCDg68V1J50NMpQ7w6UoQb3Al2lPC4FhzcOHo0y1LsDZajBPaDo/keC7bHfI3g0ylDvDpShBvcAjaReAfFcTaQ1WDJUjeWXcMELx6IMNbgH6B8ZfZHHpYl0iSnQS4ZKDfE5g9eEG8XzBM3qefugeTwfHqTW6F8X4ZsEzfq5Cau/cyBzo9vpXYPOs6VzFocwY8j2xvxZukZH6ieXoQb3gFH87XF99poBUOdiyVB9gS8QvDQov79m0EVtMBalf/N6RueYNLnM8Cx6xyRYL42XCX5E0DmYgtfL50zRbFKSnqRnDfN6l+DeRrOXob5ykC41wQHT6V23bxM03IxkELnbV2xo/i5ZI8emKW3xGZFaiec3Y62h7qVC2ItPfWvwJkR9fzl4yeFBpuC5qH406AIendMaMm7TAS6B+wddvL8bHJ3LKfy14AODe2EvQ/3O4Oj96Mb0B0FaYy15h1QQ/U5TNHDNv18YfObgaqw1VMr3p4ARuuub6/IhwV4h/ynBS+CmGKpRDMZILslabqGxDgz/SDwqaPUcff65tLruhb0M9YeDo/fvRXOgrNqrsdZQveaNggI/rx3krtkv2X+Ys2qPwn1Dqy+X4clBYmUEsKcE1IhRXQLXNlTujrTUnqtRS57KEZ6J/eTnBkefuRfNQ9oLexmq6/r3gqNj7EFe1EsHV2OtoaK7gBXRvNNz3LWWDPsSuKahPixI+2n0uUkG7KYliCRd9TFBbu0aKdekG+feWFL1c+18SVDgy3m/WdBF7nv92uCaGUcCeRQ99sBehgovGHy94AcEzU7i7o6OuZamUvieaZQRYduELYZ6BLdMajsH1zBUQbI1Q3dpQ5nIPoKghSnxo/f13HsbQRFyalSnQV/vFlwyMHI6jHhOAN2N/yWCe2DJUM+ZgytgxNBHx+3p70bdk2fp78TgXz5on//swc24tqG+U/ASuLShkmH99uDos1qqzBJNnAOlSFPxRu9vadLASRfBAKPClCSv6g2DW2Ac/5yK/UODe2DJUO2zxQlOxY8HR8dNcpcZ50OChN93QxnqvdzTUO0VvzI4+pyeZv+sgdD+0vQ9F8m5UwUS8p6jz0Au7Skw1lK0c3TMvdJ/S4Zqy/aA4Cn4wOCUhyFlZtjZXp7Bn8BaQ/2VoP2KvdPHBY0z9O8XBd3tvzpoDqrcmpTDzwaFoZdybHeiob5UcM38V6+Re1uLTwqOjtPy1Iuwx5wO8scHTwVjdZ30x3Td7IElQ7VP5IJuBb1gLvromDynVw0eirWGuvWOJyXjwn9QcM7luRMNVUfQmmCbKPAWOO7oOC0l388FY5LfHh0fDao+B/a1vei7dNULBc/F3obqb/EZwdGxBPqkHI+stHoG1hrqOQUPlO65S6Pj3omGavqc5Pfoc5IS6lv3k9zfpcij4NO58H39YHB0fHxq8FxI8/U3Mym/c7GnoapL97uOjvNzQaWTF8NRK2oPNZ4ibv1x79Rg0txUsS8LnlJXbCX6xeDomMm9DFU30ej4+IfBLS77FKQ9jC/5oaCSREGzc7GXoar2+t7g6BjfFHTTvCguZajgi+mPe6caqtTMRwW/J+ii153zBcGt0dIWDFUV0uj8k3sYKoOZW1GRge0RuNrbbdzDUG0xpgJ3Xxrc44ayGZc0VPmr3wi2x71TDTWh6D55LrjKZvKMzj+5h6HqilFNNjp+y18KKtC4STjXUDU6TFUkiSlcoi59iEsaKvQ+vz/MJXAtQ90T9kxLKZo9DBXU346OP6IyUUHDm4BTDVXQSDR7lH6RuTi11n03XNpQ9Se2x/XzJXAnGKrzW0r77GWobxUcHX+OovvawHZN9G/EKYYqfjKX9/7u4NVxaUN9tWB7XPvWS+BOMFRbh6lcXnIvQ7XH9jcZfcYSvz+o7vc5gpfGkqEqTGgNVVDsx4Kj1yZVI+0xo/csXNpQwR/THYzPr9TuErgTDFXSfaoyJrlXwQPoiBp9xlraw350cK9qqTVYMlQpoawesr/+7eDodT0d96q4hqFeA7fVUDUXv2TQ/mmpk2bPEkIQABOpHn3WFuqg+bzgprauE7FkqKgWV7PE0k2vpTbNFwleDWWo9/KmGKoUjET6Y4JPCMrlyVuOzrmnDpW9G8hdH3sYKyrWEKQ68oJfY6inUpns1VCGei+vZaj2PqRItPsJxkhfteJvW0iPiPDZEeB2a20bfe5WkiNxvCP0no40VLxaOqoM9V5e0lAFat4gSAFDKdpacbAlHmmoQNTsG4Kjzz6F+mxfOLgnTjXUtWoOapKViF4cZaj38hKGqixNcGWppzEpQunCUCBPRWEph3q0oSbeOjjVq7qVlC/23LtuNVSVXg8PkrFdKzmzp3TMapSh3ssjDVUw6LOCpEBHn91SPbQyNfKUIritlKqLaW6/eilDBUEuVWV7iICptjpJQnOAtYYqkCTARb4zoSJLznT0+p5c94uiDPVeHmGo9p+KzZcM1PMCFcTjqDVOQY3pnPbSJQ014ZxoJMmdjs5pLfU174E1hko32TmPQPx8KVeNuqM2qQieizLUe7m3oVpFvys4+qykvekTg3R01mCpKP8ahtqCMLV2xjVN8z1VDPEYzsUaQ9UUP4clQbfkTwdNNrgIylDv5Z6GymX91eDoc5LUL4iHbQFDJZg1Oh5e21AThNq+PLg1SGb/fi6WDNVqurQSakEU5Bu9vydP6CKF+mWo93IvQyUxuSQNKt95ihLDbTHUhHzwklfRUoDqXCwZqgCd6PUSiJOtTZOZs3M4njXYy2KMWIa6DmtEzQxxPgVLbW43zVBBrvSDglzb0Tm3lKc915VcMtSlNrcWxMpGx+hplRYJPxQKp9cs82WoyyBwtaSV5HO0q50CF3Hfz9tyL0O12u+xX2xhhVrKVRKnJit6DvY0VN4mCdbRcXo6dw0nh0Hyds0clDvdUBWQt6H6U6BncXTslno3TwW3ei4iuYehEormHkoDuej3BBdxdN5JF/u5A6/2NFSw314bHCPOTYHyEOgkWNNBcKcbqpvVuRf51wVHx255jqEaCzm3Yu9R66ujKY9njzal4H8K3AjnFgUr7rm6uGv2qFv1nvoe6jnaRh4yvpM+DLX20Ye2pCl7mzGnU4vumue6e2uqdQRXqAmcAq75nKHKx54ruakRoD0m4TFxjL1AQ6o9fkt71HMLH3QZjY6ddPPZqsGrEGJKRXNE/a17SJ/+MaztOVzKPd10SKiPfq+W587pnNMvTroYT125lxrHVdu8fvAcqNbpj6t7Zi8QeeuPn7QfPFdbSl56dOyWDwpuhZvkkrBcSyL054zO+BNYe6c4x2W7CVgj1nXunE59jqPj9twqvA1WYcdf6qGkDmjFUOFE0lLhhTGZBhW9bXBJJmVkqEiE+txuF+cz5/qeq0vkb7QmHXRq1N3fdctEN3vWPbSK72kyXhKKTjrBiwoO7wgdGmtatARQzvnDvldwdNye9klTJWw91PqSGN2SjxQwkW+Vz+2HDzvHOUwZKho9aDrbqVC/PDoucunPlZHR57rGkHg+p+JdgqNjTtG++5HBk4si1GiucdVa6iN87+Ap4tHXRL/vmqPfkRHZl2wFV2dNvjBpzD4RMZF3Re7cPukykUMT3kwnUKY2eu+pNKRpDnPC4aji6v2DW1NZbxecWxS0/J2LpYBh0j516YY1B4HV0XHnqANKRH0TXAjujqMDrqHyN66wgnOqc1wC+65rqs+NYJ6l9rDR77BE0TtDsPSNqmRZk4hnaGunuLWUVuEmSRH520pTjF53LnkMS3tYQ8BG7+1JXkWXD3da3lWk083fDQfdzNUwG6doezVXTmj1P3VmKWiTW1ufm3Q+Tw1aIRXi+/y1AmZu4qbwjY47R4URuo1cVwokDH3GZ5Q08t2N0dNqxbLXtFttoROw97CBdre5ipJ4A788V3Gp+GAtrQQCCfaIS96Ei7N3N/eglf7TgmpoR88vUS/rmwaXQAJm9P45ipg7vj5b18DTg6b5rbnO/F6nDrby+5jKfu7fW4BOe6Fo7XcEHxVc2o8r5xQRHx1vK33+PUL0r3vfA5eiRtxrQQfHqVIma8iLWAJ3dk2r1BoqGZQbbF3NtS4e+lu4waxVUiA1MjrOEbS6rO0c6vGWwb2UMUZ8n+ASFKCoNBu9fyvl4O9ZZkdPHkX72GvhscHROe3FDw2ugbv9UgfNHM1+4Za1jeMJHhK3bfS+pIvYMKOtwTF7ZKm4uVLFc6nAhot9Tn7WnnZ07L0orrEGcu9rJUfnyNu9524qGe/CEQn0fxbslzXrUrrABSin6uLwb/6fkLIkstcZXixP5SIhR8HV+ZkgtwcFPoTYryG8nOBGORfSmv6A/s8Nc6669w3Rdf5kN/w+fq+efl+/x1OChjTL/Xm//edcY3cPSW9fuP3c6MtpaftgUps9tbpY+7w5qEP12t69N3DaeZ+bFlDhJKDl/KV81vwOc3SerpXHBffQHDKXdPQ5/o62KqL89v2+f5/r+8MfCPr+7TF9t/lvfse2OLhmm5CQf1cVNjqfpBun2INzc106N9+V79znP6PQQ3jY/uqIoav89a2zPo+EwI/8oQCHc7s2lM754t0YXBgulKQbw8OCelhPCca5owvYIOM86ibJ9TbT1OdQTHQzMCWcEbjg2vyulIRGD3EC+Ve/n/M8tSJrBNexLV3+7mIwfn91vOqFpWpck1u/f3vTU/LFbj4WO9+pyPp7Bp2XYKTzEtiU2tJ0IHDFU/Jd3fedP9Mz/T9VQqqAgnsVBQAAAABJRU5ErkJggg==;fontSize=14;" vertex="1" parent="1">
          <mxGeometry x="167" y="2881" width="155.22" height="199" as="geometry" />
        </mxCell>
        <mxCell id="NUJJkoM4LNsQMDwtqZOB-54" value="&lt;span style=&quot;color: rgb(0 , 0 , 0) ; font-family: &amp;#34;helvetica&amp;#34; ; font-style: normal ; letter-spacing: normal ; text-indent: 0px ; text-transform: none ; word-spacing: 0px ; background-color: rgb(248 , 249 , 250) ; display: inline ; float: none&quot;&gt;&lt;font style=&quot;font-size: 23px&quot;&gt;Flask Server&lt;/font&gt;&lt;/span&gt;" style="text;whiteSpace=wrap;html=1;fontSize=14;align=center;fontStyle=1" vertex="1" parent="1">
          <mxGeometry x="198" y="3090" width="80" height="30" as="geometry" />
        </mxCell>
        <mxCell id="NUJJkoM4LNsQMDwtqZOB-55" value="" style="rounded=0;whiteSpace=wrap;html=1;fontSize=14;strokeWidth=3;fillOpacity=0;" vertex="1" parent="1">
          <mxGeometry x="138" y="2870" width="210" height="220" as="geometry" />
        </mxCell>
        <mxCell id="NUJJkoM4LNsQMDwtqZOB-56" value="" style="shape=flexArrow;endArrow=classic;html=1;fontSize=13;fillColor=#ffcd28;strokeColor=#d79b00;gradientColor=#ffa500;" edge="1" parent="1">
          <mxGeometry width="50" height="50" relative="1" as="geometry">
            <mxPoint x="366.99999999999955" y="2952.5" as="sourcePoint" />
            <mxPoint x="608" y="2952.5" as="targetPoint" />
          </mxGeometry>
        </mxCell>
        <mxCell id="NUJJkoM4LNsQMDwtqZOB-57" value="" style="shape=flexArrow;endArrow=classic;html=1;fontSize=13;fillColor=#d5e8d4;strokeColor=#82b366;gradientColor=#97d077;" edge="1" parent="1">
          <mxGeometry width="50" height="50" relative="1" as="geometry">
            <mxPoint x="608" y="3015.5" as="sourcePoint" />
            <mxPoint x="366.99999999999955" y="3015.5" as="targetPoint" />
          </mxGeometry>
        </mxCell>
        <mxCell id="NUJJkoM4LNsQMDwtqZOB-58" value="" style="shape=ext;double=1;rounded=1;whiteSpace=wrap;html=1;strokeColor=#d6b656;strokeWidth=3;perimeterSpacing=0;gradientColor=#ffd966;fillColor=#fff2cc;" vertex="1" parent="1">
          <mxGeometry x="618" y="2840" width="240" height="295" as="geometry" />
        </mxCell>
        <mxCell id="NUJJkoM4LNsQMDwtqZOB-59" value="&lt;font&gt;&lt;br&gt;&lt;/font&gt;" style="text;html=1;strokeColor=none;fillColor=none;align=center;verticalAlign=middle;whiteSpace=wrap;rounded=0;strokeWidth=3;" vertex="1" parent="1">
          <mxGeometry x="723" y="2845" width="40" height="20" as="geometry" />
        </mxCell>
        <mxCell id="NUJJkoM4LNsQMDwtqZOB-60" value="&lt;b&gt;&lt;font style=&quot;font-size: 22px&quot;&gt;ENCODER&lt;/font&gt;&lt;/b&gt;" style="rounded=1;whiteSpace=wrap;html=1;fillColor=#cdeb8b;strokeColor=#009900;strokeWidth=3;" vertex="1" parent="1">
          <mxGeometry x="643" y="2865" width="190" height="50" as="geometry" />
        </mxCell>
        <mxCell id="NUJJkoM4LNsQMDwtqZOB-61" value="&lt;b&gt;&lt;font style=&quot;font-size: 22px&quot;&gt;ENCODER&lt;/font&gt;&lt;/b&gt;" style="rounded=1;whiteSpace=wrap;html=1;fillColor=#cdeb8b;strokeColor=#009900;strokeWidth=3;" vertex="1" parent="1">
          <mxGeometry x="643" y="2990" width="190" height="50" as="geometry" />
        </mxCell>
        <mxCell id="NUJJkoM4LNsQMDwtqZOB-62" value="&lt;b&gt;&lt;font style=&quot;font-size: 22px&quot;&gt;ENCODER&lt;/font&gt;&lt;/b&gt;" style="rounded=1;whiteSpace=wrap;html=1;fillColor=#cdeb8b;strokeColor=#009900;strokeWidth=3;" vertex="1" parent="1">
          <mxGeometry x="642" y="3060" width="190" height="50" as="geometry" />
        </mxCell>
        <mxCell id="NUJJkoM4LNsQMDwtqZOB-63" value="" style="shape=image;html=1;verticalAlign=top;verticalLabelPosition=bottom;labelBackgroundColor=#ffffff;imageAspect=0;aspect=fixed;image=https://cdn3.iconfinder.com/data/icons/google-material-design-icons/48/ic_more_horiz_48px-128.png;fontSize=13;strokeWidth=1;" vertex="1" parent="1">
          <mxGeometry x="697" y="2915" width="75" height="75" as="geometry" />
        </mxCell>
        <mxCell id="NUJJkoM4LNsQMDwtqZOB-64" value="" style="line;strokeWidth=7;direction=south;html=1;fontSize=14;" vertex="1" parent="1">
          <mxGeometry x="732" y="3135" width="10" height="225" as="geometry" />
        </mxCell>
        <mxCell id="NUJJkoM4LNsQMDwtqZOB-65" value="&lt;font style=&quot;font-size: 22px&quot;&gt;&lt;b&gt;GPU&lt;/b&gt;&lt;/font&gt;" style="rounded=1;whiteSpace=wrap;html=1;fontSize=14;strokeWidth=3;gradientColor=#97d077;fillColor=#d5e8d4;strokeColor=#82b366;" vertex="1" parent="1">
          <mxGeometry x="643" y="3360" width="210" height="95" as="geometry" />
        </mxCell>
        <mxCell id="NUJJkoM4LNsQMDwtqZOB-66" value="&lt;font color=&quot;#ffffff&quot; style=&quot;font-size: 35px&quot;&gt;1&lt;/font&gt;" style="strokeWidth=2;html=1;shape=mxgraph.flowchart.start_2;whiteSpace=wrap;fontSize=14;fillColor=#007FFF;strokeColor=#007FFF;" vertex="1" parent="1">
          <mxGeometry x="-472" y="3230" width="55" height="50" as="geometry" />
        </mxCell>
        <mxCell id="NUJJkoM4LNsQMDwtqZOB-67" value="&lt;font color=&quot;#ffffff&quot; style=&quot;font-size: 35px&quot;&gt;2&lt;/font&gt;" style="strokeWidth=2;html=1;shape=mxgraph.flowchart.start_2;whiteSpace=wrap;fontSize=14;fillColor=#007FFF;strokeColor=#007FFF;" vertex="1" parent="1">
          <mxGeometry x="-32" y="2820" width="55" height="50" as="geometry" />
        </mxCell>
        <mxCell id="NUJJkoM4LNsQMDwtqZOB-68" value="&lt;span style=&quot;color: rgb(255 , 255 , 255) ; font-size: 35px&quot;&gt;3&lt;/span&gt;" style="strokeWidth=2;html=1;shape=mxgraph.flowchart.start_2;whiteSpace=wrap;fontSize=14;fillColor=#007FFF;strokeColor=#007FFF;" vertex="1" parent="1">
          <mxGeometry x="463" y="2810" width="55" height="50" as="geometry" />
        </mxCell>
        <mxCell id="NUJJkoM4LNsQMDwtqZOB-69" value="&lt;span style=&quot;color: rgb(255 , 255 , 255) ; font-size: 35px&quot;&gt;4&lt;/span&gt;" style="strokeWidth=2;html=1;shape=mxgraph.flowchart.start_2;whiteSpace=wrap;fontSize=14;fillColor=#007FFF;strokeColor=#007FFF;" vertex="1" parent="1">
          <mxGeometry x="452" y="3040" width="55" height="50" as="geometry" />
        </mxCell>
        <mxCell id="NUJJkoM4LNsQMDwtqZOB-70" value="&lt;span style=&quot;color: rgb(255 , 255 , 255) ; font-size: 35px&quot;&gt;5&lt;br&gt;&lt;/span&gt;" style="strokeWidth=2;html=1;shape=mxgraph.flowchart.start_2;whiteSpace=wrap;fontSize=14;fillColor=#007FFF;strokeColor=#007FFF;" vertex="1" parent="1">
          <mxGeometry x="-19.5" y="3041" width="55" height="50" as="geometry" />
        </mxCell>
        <mxCell id="NUJJkoM4LNsQMDwtqZOB-71" value="&lt;span style=&quot;color: rgb(255 , 255 , 255) ; font-size: 35px&quot;&gt;6&lt;br&gt;&lt;/span&gt;" style="strokeWidth=2;html=1;shape=mxgraph.flowchart.start_2;whiteSpace=wrap;fontSize=14;fillColor=#007FFF;strokeColor=#007FFF;" vertex="1" parent="1">
          <mxGeometry x="-202" y="3170" width="55" height="50" as="geometry" />
        </mxCell>
        <mxCell id="NUJJkoM4LNsQMDwtqZOB-72" value="&lt;span style=&quot;font-size: 23px&quot;&gt;The web-app sends&lt;br&gt;the text input to&lt;br&gt;the flask server&lt;br&gt;&lt;/span&gt;" style="text;html=1;align=center;verticalAlign=middle;resizable=0;points=[];autosize=1;strokeColor=none;fontSize=13;" vertex="1" parent="1">
          <mxGeometry x="-127" y="2861" width="230" height="100" as="geometry" />
        </mxCell>
        <mxCell id="NUJJkoM4LNsQMDwtqZOB-73" value="&lt;span style=&quot;font-size: 23px&quot;&gt;Flask server sends the &lt;br&gt;text input to the &lt;br&gt;selected model&amp;nbsp;&lt;/span&gt;" style="text;html=1;align=center;verticalAlign=middle;resizable=0;points=[];autosize=1;strokeColor=none;fontSize=13;" vertex="1" parent="1">
          <mxGeometry x="358" y="2850" width="250" height="100" as="geometry" />
        </mxCell>
        <mxCell id="NUJJkoM4LNsQMDwtqZOB-74" value="&lt;span style=&quot;font-size: 23px&quot;&gt;Model detects &amp;amp; generates&lt;br&gt;the result and sends&lt;br&gt;it back to the flask server&lt;/span&gt;" style="text;html=1;align=center;verticalAlign=middle;resizable=0;points=[];autosize=1;strokeColor=none;fontSize=13;" vertex="1" parent="1">
          <mxGeometry x="328" y="3087" width="300" height="100" as="geometry" />
        </mxCell>
        <mxCell id="NUJJkoM4LNsQMDwtqZOB-75" value="&lt;span style=&quot;font-size: 23px&quot;&gt;Flask server sends &lt;br&gt;the result to &lt;br&gt;the application interface&lt;/span&gt;" style="text;html=1;align=center;verticalAlign=middle;resizable=0;points=[];autosize=1;strokeColor=none;fontSize=13;" vertex="1" parent="1">
          <mxGeometry x="-127" y="3079" width="270" height="100" as="geometry" />
        </mxCell>
        <mxCell id="NUJJkoM4LNsQMDwtqZOB-76" value="&lt;span style=&quot;font-size: 23px&quot;&gt;&lt;b&gt;Model (example: BERT)&lt;/b&gt;&lt;/span&gt;" style="text;html=1;align=center;verticalAlign=middle;resizable=0;points=[];autosize=1;strokeColor=none;fontSize=13;" vertex="1" parent="1">
          <mxGeometry x="590" y="2800" width="280" height="40" as="geometry" />
        </mxCell>
        <mxCell id="NUJJkoM4LNsQMDwtqZOB-77" value="&lt;font face=&quot;Times New Roman&quot; color=&quot;#ffffff&quot; size=&quot;1&quot;&gt;&lt;b style=&quot;font-size: 23px&quot;&gt;WEB APPLICATION&lt;/b&gt;&lt;/font&gt;" style="rounded=0;whiteSpace=wrap;html=1;fontSize=13;strokeWidth=1;fillColor=#4D4D4D;" vertex="1" parent="1">
          <mxGeometry x="-377" y="2910" width="230" height="150" as="geometry" />
        </mxCell>
        <mxCell id="NUJJkoM4LNsQMDwtqZOB-78" value="&lt;span style=&quot;font-size: 23px&quot;&gt;&lt;i&gt;&lt;font color=&quot;#ffffcc&quot;&gt;TakeYourCare&lt;/font&gt;&lt;/i&gt;&lt;/span&gt;" style="text;html=1;align=center;verticalAlign=middle;resizable=0;points=[];autosize=1;strokeColor=none;fontSize=13;fontStyle=1" vertex="1" parent="1">
          <mxGeometry x="-347" y="2996.5" width="170" height="40" as="geometry" />
        </mxCell>
        <mxCell id="NUJJkoM4LNsQMDwtqZOB-79" value="" style="shape=ellipse;strokeColor=none;html=1;fillColor=#FF8000;" vertex="1" parent="1">
          <mxGeometry x="-371" y="2914" width="10" height="10" as="geometry" />
        </mxCell>
        <mxCell id="NUJJkoM4LNsQMDwtqZOB-80" value="" style="shape=ellipse;strokeColor=none;html=1;fillColor=#FFFF00;" vertex="1" parent="1">
          <mxGeometry x="-357" y="2914" width="10" height="10" as="geometry" />
        </mxCell>
        <mxCell id="NUJJkoM4LNsQMDwtqZOB-81" value="" style="shape=ellipse;strokeColor=none;html=1;fillColor=#00FF80;" vertex="1" parent="1">
          <mxGeometry x="-343" y="2914" width="10" height="10" as="geometry" />
        </mxCell>
        <mxCell id="NUJJkoM4LNsQMDwtqZOB-82" value="&lt;span style=&quot;font-size: 23px&quot;&gt;The Model leverages&lt;br&gt;Google Colab&#39;s GPU for&lt;br&gt;RAM and Disk Space&lt;/span&gt;" style="text;html=1;align=center;verticalAlign=middle;resizable=0;points=[];autosize=1;strokeColor=none;fontSize=13;" vertex="1" parent="1">
          <mxGeometry x="466" y="3238" width="270" height="100" as="geometry" />
        </mxCell>
      </root>
    </mxGraphModel>
  </diagram>
</mxfile>
